<svg xmlns="http://www.w3.org/2000/svg" viewBox="0 0 397.7 248.2">
  <path d="M27.9 243.1c-1.4 0-2.6 1.2-2.6 2.5 0 1.4 1.1 2.6 2.6 2.6 1.4 0 2.5-1.2 2.5-2.6 0-1.3-1.1-2.5-2.5-2.5zm16.6-10.8a6 6 0 0 0-4.6 2.2l-.3-1.8h-3.9v14.9h4.4v-10.2c.8-1.2 1.6-1.9 2.6-1.9.9 0 1.4.4 1.4 2v10.1h4.4v-10.9c.1-2.7-1.4-4.4-4-4.4zM65 240c0-4.8-2.6-7.7-6.9-7.7-4.5 0-7 3.5-7 8 0 4.7 2.5 7.9 7.5 7.9a9 9 0 0 0 5.8-2.1l-1.8-2.5a6.1 6.1 0 0 1-3.6 1.3c-1.8 0-3.1-.7-3.4-3.4h9.2c.2-.4.2-1 .2-1.5zm-4.4-1.1h-5c.2-2.7 1.1-3.6 2.6-3.6 1.8 0 2.4 1.4 2.4 3.4v.2zm14.8 5.3c-.6.4-1.1.5-1.6.5-.9 0-1.4-.5-1.4-1.9v-6.9h3l.5-3.1h-3.4v-3.7l-4.4.5v3.2H66v3.1h2v6.9c0 3.5 1.6 5.4 4.9 5.4 1.3 0 2.9-.4 4-1.2l-1.5-2.8zM267.1 66c5-.2 7.6-2.1 7.6-6.4 0-4.2-2.8-5.5-8.5-5.4l-3.5.1v11.8l4.4-.1zm.8 7.9l-5.3.2v13.7l4.4-.1c5.6-.2 9.6-1.5 9.6-7 .1-5.1-3.5-6.9-8.7-6.8z"/>
  <path d="M392.8 80.9c-.9-.9-1.9-1.6-2.9-2.2-.7-1.3-1.7-2.4-2.7-3.5a16.1 16.1 0 0 0-22.6.5l-.9.9-.5.6-2 2.2-.6.8c-.8 1-1.9 2.2-2.9 3.7l-3.9 5.8v.1l-.5.9-1.4 2.4-.2.3-1.7 3.2v.2l-.5 1.1-1.3 2.7v.1l-.5 1.2-.7 1.5-3.3-81.4-250 10.1h-8.9v-9.9h12v-6.5h-12V6.6h13.7l1-6.6H75.3v33l-7.3.3V0h-9.2v15H47.2V0H38v34.5l-14.2.6v-28h9.6l.9-7.1H4.5v7.1h10v28.4l-9.4.4 3.6 89 34.7-1.4-.8 1.2a148.7 148.7 0 0 0-15.1 31.7c-1.6 5-2.8 10-3.6 14.9-3.1 2.2-6.1 4.4-8.8 6.7a62.5 62.5 0 0 0-8.2 8 34 34 0 0 0-5.4 8.2c-1.4 3.1-1.8 6.1-1.4 8.9.3 1.9.9 3.7 1.9 5.4 1.1 1.9 2.8 3.4 5 4.5l.6 1.2c1.1 1.9 2.8 3.4 5.1 4.5 2 1 4.5 1.5 7.6 1.7h1.5c2.5 0 5.4-.3 8.9-.9l.4-.1.4-.1a4 4 0 0 0 2.6-4.4c-.5-3.3-3.8-3.5-5-3.6l-.9-.1c.2-.6.3-1.3.2-2-.4-2.6-2.5-3.3-4-3.5l.1-.1 2.9-2.8a32.5 32.5 0 0 0 8.4 10.2l1.5 1.9c2.6 2.9 5.6 5.1 9.1 6.6 3.4 1.5 7.2 2.2 11.2 2.3h.5a39 39 0 0 0 12.5-2.3c2-.7 4-1.8 5.7-3.3l.6 2.6c1.5 4.7 4.3 7 6.7 8.1 1.8 3.5 4.4 5.2 6.5 6 1.9.7 3.8 1.1 5.6 1.1 1.3 0 2.7-.2 3.9-.6.9-.3 3.5-1.1 4.6-3.6a6 6 0 0 0-.2-4.9l-1.5-2.7-.5-1c-.3-1.1-.7-3.1-.4-6.9.2-3.4.7-7.1 1.4-10.9a184.1 184.1 0 0 1 5.2-20.8l2 1.7 1.6.9a11 11 0 0 0 4.1 4.8 26 26 0 0 0 12.1 3.6h.9c1.7 0 3.2-.2 4.7-.5a81 81 0 0 0-3.9 1.5l-1.1.5-2.4 1-1.6.7-.7.3c-2.9 1.3-5.1 2.6-6.7 3.5h-.2l-1.3.9-.6.4h-.2l-.5.3-.6.4a12.1 12.1 0 0 0 2.2 20.5c.4.8.8 1.5 1.4 2.2a12 12 0 0 0 16.9 2.1l.1-.1.4-.3.8-.6a65 65 0 0 1 4.5-2.7l.7-.4 1-.5 1.5-.8.5-.2 1.1-.5c1-.5 2.1-1.1 3.3-1.5l1.9-.8 3.4-1.4 3.3-1.2 2.9-1.1h.1a98.5 98.5 0 0 1 6.6-2.3l2.1-.7c1.6-.5 3.3-1.1 5-1.5h.1l7-2 .9-.2 3.9-1h.1l2.6-.6 1.7-.4 3.8-.9.5-.1 1-.2 3.2-.7 4.2-.8 4.8-.9 3.2-.6 1.4-.3 2.8-.5 1.7-.3 3.2-.5 6.1-.9 4.6-.7 4.6-.6 3.2-.4 6.1-.7h.1c4.9-.6 9.8-1 14.6-1.4l3.5-.3 3.5-.3c4.7-.4 9.1-.8 13.4-.9l2.1-.1 13.3-.7 6.7-.2 6.2-.1 8.1-.2h2l8.8-.2h.1c2.3 0 4.3-1.4 5.2-3.4.6.4 1.2.7 1.9.9a9 9 0 0 0 17.6-2.8 9 9 0 0 0-6.1-8.5l-.3-.8a6 6 0 0 0 5.1-4.4l1-3.6a231.4 231.4 0 0 1 14.9-37 200.4 200.4 0 0 1 7.9-13.2l1.3-1.8.7-1 1.1-1.4.9-1.2.9-1.1 1-1.2 1.6-1.8.2-.3 3.2-3.1.1-.1.1-.1 1.8-1.5.8-.6 1-.7.7-.4.6-.4.2-.1a15.6 15.6 0 0 0 7-13.6c.6-4-1.1-8-4.2-11zm-91.6 75c.5.4 1 .6 1.5.6h.1c1.1 0 2.3-.2 3.5-.5l2.2-.7 2.3-1h.1c3-1.4 5.9-3.2 8.9-5.3l1.5-1.1c2.5-1.8 5-3.8 7.4-5.9l.1-.1 8-7.1.7-.6-.2.8-.6 3.3-.5 2.5-.5 3.1-.4 2.5-2.9 3a101.1 101.1 0 0 1-16.5 13.2c-3.5 2-6.7 3-9.7 3h-.1a25.5 25.5 0 0 1-13-3.6l-1.9-1.4-.2-.2-1.3-1.2-.3-.4-1-1.2a22 22 0 0 1-1.9-3l-.3-.7-.8-2.4-.5-2.8v-1.3l.1-2.5c.1-1.6.3-3.2.7-4.8.3-1.5.8-2.9 1.3-4.4a44 44 0 0 1 2.1-5l.1-.3a65.5 65.5 0 0 1 10.8-15.5l.9-1 .9-.9.6-.6a65.4 65.4 0 0 1 12.8-10.1l.3-.2 1.9-1c.9-.4 1.5-.6 2-.6.8 0 1.7.2 2.9.6l3 1.1.7.3c1.3.5 2.5 1.2 3.8 1.8a30 30 0 0 1 3.2 1.9l2.2 1.4a18.6 18.6 0 0 1 4 3.9l.7 1 .2.4c.5.7.7 1.3.6 1.8 0 .7-.5 1.7-1.5 3.2-.8 1.2-1.8 2.5-3.1 4l-.8.9a91.9 91.9 0 0 1-11.5 10.6 53.3 53.3 0 0 1-6 3.8c-1 .5-1.9.9-2.8 1.1-.8.2-1.6.4-2.4.4h-.1a20.4 20.4 0 0 1-6-1l-.5-.2a43 43 0 0 0-2.8 5.1l-1.4 3.2c-1 2.7-1.5 5-1.5 7 .1 1.7.4 2.7.9 3.1zm-28.5-5.8l7.9-9.3 1.1-1.3-.7 4.6-.1 3.4v.9l.1 1.2c.1.9.2 1.7.5 2.6l.4 1.3-1.8 2.7c-2.1 3.1-3.5 5-4.3 5.8a12.6 12.6 0 0 1-4.8 3.2 39.3 39.3 0 0 1-6.6.8H263l-4.2-.3c-2-.2-3.8-.6-5.5-1.1l-.4-.1a12 12 0 0 1-3.9-2 5.5 5.5 0 0 1-1.4-1.7c-.3-.5-.4-1.1-.5-1.7v-.9a19 19 0 0 1 1.2-4.5l3.3-8.4c1.4-3.1 2.8-6.3 4.5-9.6l4.6-8.8-6.7 7.7-7.7 9-3.8 4.5-.1.1-3.8 4.6-3.2 3.8-3.7 4.3a119 119 0 0 1-5.4 5.8c-1.5 1.5-2.6 2.3-3.2 2.3h-.5l-2.6-.2c-1.5-.2-3-.5-4.5-1l-.6-.2-2-.8-1.6-1-.3-.2c-.6-.5-1.1-1-1.4-1.6-.2-.5-.4-.9-.4-1.5v-1.3l.8-4.2.1-.4a128.8 128.8 0 0 1 6.6-18l4.1-9-6.3 8.2-7.4 9.6-2.8 3.7-4.6 6.1-3.4 4.5-3.3 4.2c-2 2.6-3.8 4.7-5.2 6.3-1.5 1.6-2.5 2.5-3.1 2.6h-.6l-2.5-.3a23.7 23.7 0 0 1-4.4-1.1l-.5-.2-.6-.2-1.4-.7-.3-.2-1.1-.7-.5-.4c-.5-.4-.8-.9-1.1-1.4l-.5-1.4-.1-2.1c0-1.6.3-3.6.8-6.1l.1-.7.5-2.4 1.8-6.8.7-2.4a191 191 0 0 1 9.5-24.8l.9-2 .1-.2v-.1l.8-1.6.6-1.3c1.3-2.6 2.6-4.9 3.7-6.8l.9-1.4c1.1-1.6 2-2.5 2.6-2.6l1.3-.1h.5l2.2.2a31.5 31.5 0 0 1 8.3 2.7l2.7 1.4c.8.5 1.4 1.1 1.9 1.6l.6.8c.3.5.4 1.1 0 1.7l-.7.8-.5.7-1.4 2.2-3.4 6-4.4 8.2a258 258 0 0 0-8.7 18l-3.1 7.4 6.2-9.1a754 754 0 0 1 17.9-24l2.9-3.6.2-.2.5-.5v-.1l2.1-2.4 1.4-1.6.6-.7 1.7-1.9c2.9-3.3 5.4-6 7.6-8 2.2-2.1 3.7-3.2 4.4-3.2h.7a36 36 0 0 1 8.6 2l2.9 1.2a15.8 15.8 0 0 1 4 2.6l.3.3c.4.3.6.7.9 1.1.2.5.3 1 .2 1.5v.1c-.2.6-.6 1.2-1.4 2.1l-1 1.2-1.3 1.8a168.2 168.2 0 0 0-8.6 13.8l-4.7 8.3a195.3 195.3 0 0 0-6.5 13.4l7-9.1a562.6 562.6 0 0 1 18.8-22.3l3.5-3.8 1.7-1.8.6-.6.9-.9 2.8-2.9c2.9-3 5.4-5.3 7.5-7.2 2.2-1.8 3.6-2.8 4.4-2.8h.2c1 0 2.2.2 3.6.5l3.9 1.2.5.2a45.8 45.8 0 0 1 6.3 3.3l1 .9.5.5c.5.5.9.9 1.1 1.5.1.4.2.7.1 1.1l-.1.5a6 6 0 0 1-1.6 2l-.8.9-1.9 2.7-5 7.5c-1.9 2.9-3.8 6.1-5.9 9.6l-5.6 9.9c-1.7 3.1-3.1 5.9-4.2 8.4a20.8 20.8 0 0 0-1.8 5.1l6.2-6.9zM223.3 178l-4.7.4-2.7.2-7 .6-1.7.1-3.3.3-3.6.5-1.2.1-3 .4.3-.3 5.4-6.5 5.2-6.7c.5.7 1.2 1.2 1.9 1.8.8.5 1.5 1 2.4 1.4a8.4 8.4 0 0 0 3.3 4.2 24.6 24.6 0 0 0 8.7 3.5zm-41.2 4.9h-.1l-1.3.2-2.6.5-1.8.3-4.6.8-1.1.2c1.5-1 2.6-2.1 3.5-3.4.4-.6.9-1.3 1.5-2.5l1.2 1.1c1.5 1.1 3.2 2 5 2.6l.3.2zM295.7 45l31-.3-1.2 8.5-17.8.1v12.1l15.6-.1v8.4l-15.6.1v12.9l19.1-.1v8.6c-10.4 0-20.7.1-31 .3V45zm-45 1.4l14.3-.5c8.4-.8 22 1.1 21.9 12.3 0 6.4-4.6 9.9-9.3 11.1 5.6.9 11.3 3.7 11.4 11.8.2 11.9-12.4 15.6-22.1 15.4l-16.3.6V46.4zm-48.3 36V48.6l12-.6v33.3c0 6.5 2.3 9.5 7.8 9.3 5.5-.2 7.8-3.5 7.8-10V47.2l12-.5v33.8c.2 11.2-9.5 18.4-19.8 18.9-10.4.6-20.2-5.8-19.8-17zm-42.8-31.6l38.7-2-1.2 9.3-12.5.6v41.4l-12 .6V59.3l-13.1.7v-9.2zm-44.2 35.9V52.9l12-.5v33.3c0 6.5 2.3 9.5 7.7 9.3 5.5-.3 7.8-3.5 7.8-10V51.6l12-.6v33.8c.2 11.2-9.4 18.5-19.8 19-10.3.7-20.1-5.8-19.7-17.1zM86.1 52.8C100.7 52.2 109 65 109 78.4c0 8.5-3.3 17-9.4 22.2A39 39 0 0 0 87.4 97c6-.8 8.9-6.1 8.9-18.1 0-12.8-3.5-17.6-10.3-17.4-6.7.2-10.2 5.3-10.2 18.1 0 9.7 2.1 14.9 5.9 16.7l-2.8-.2h-1.2c-2.6 0-5 .3-7.2.9l-1.8.6a29.8 29.8 0 0 1-5.5-17.7c.1-13.3 8.3-26.5 22.9-27.1zM47.2 22.2h11.7v11.5l-11.7.5v-12zm-10.3 83.7V87L20.6 55.3h13.1l9.4 22.2 9.3-22.4 12.6-.3-16.2 32v19l-11.9.1zm68.9 54c-.5.7-1.2 2.4-2.3 5s-2.2 5.8-3.4 9.5a181.8 181.8 0 0 0-7.9 36.2c-.2 3.5 0 6.2.6 8.3.2.7.6 1.4 1 2.1.5.7.8 1.4 1.1 2 .3.7.3 1.2.1 1.8-.2.5-.9.9-2 1.3a10.2 10.2 0 0 1-6.2-.2l-.7-.3A7.8 7.8 0 0 1 82 222c-.4-.7-.8-1.5-1-2.4-.4-1.3-.7-3.1-.8-5.4v-3.4l.1-4 .4-5.3a157.8 157.8 0 0 1 3.1-22.1l-.7 1.4-.3.5c-.7 2-1.3 4.1-2.1 6.1-1.4 4-2.9 7.7-4.6 11a44.9 44.9 0 0 1-5.5 8.7 15 15 0 0 1-6.7 5 34.9 34.9 0 0 1-11.3 2.1h-.4a26 26 0 0 1-13.5-4c-1.4-1-2.8-2.2-4-3.5l-.9-1c-1.7-2.1-3-4.5-4.1-7.1l-.2-.6-.5-1.4a36 36 0 0 1-1.7-8.3 60.4 60.4 0 0 0-11.4 9.1c-2.8 2.9-4 5.5-3.7 7.8.2 1.2 1 2.1 2.4 2.7l3.3 1.1 1.1.2.8.2 2 .3 1.2.1c1.1.1 1.5.2 1.2.3l-1.2.2-3.2.4-2 .2h-3.1a20 20 0 0 1-4.8-.8l-1.3-.5-1-.5c-1-.6-1.7-1.3-2.2-2.2l-.1-.2a11.4 11.4 0 0 1-.4-10.6c1.1-2.4 2.7-4.8 4.8-7.3 2.1-2.5 4.7-5 7.8-7.5 3-2.5 6.3-5 9.9-7.4.7-5.2 1.9-10.5 3.7-16a130.2 130.2 0 0 1 14.6-30.8l2.4-3.6a109.2 109.2 0 0 1 15.7-17.9c2.9-2.3 5.4-3.8 7.6-4.4h.1c1.8-.5 3.8-.8 6-.8h1.1a64.3 64.3 0 0 1 14.7 2.4l1.4.5.8.3 2.3 1a4 4 0 0 1 1.5 1.1h1.1l2.3.2c1 .2 1.5.5 1.6 1.1.1.2 0 .7-.3 1.4l-.7 1.9-.5 1.3c-1.1 2.6-2.5 5.3-4 8.3l-.9 1.7-2.5 4.5-1.2 1.9c-.4.6-.7 1.2-1.1 1.6a7.4 7.4 0 0 1-2.1 2.2l-.4.2h-.1c-.4 0-.7-.6-.9-1.8-.2-1-.2-2.2-.2-3.6v-1.5l.1-1.2.1-2.1v-.6l.3-2.7.9-6.4a25 25 0 0 0-9.6 5.6A68 68 0 0 0 71 128.6a134.6 134.6 0 0 0-17 30.9 227 227 0 0 1 9.8-4l2.7-1 2.7-.9 4.3-1.4 3.6-1.1 3.2-.8c2.4-.6 5.5-1.1 9-1.1h.7a34.5 34.5 0 0 1 12.2 2.2 11 11 0 0 1 3.8 2.6l.3.4c.5.7.8 1.5.7 2.4.1.7-.4 1.9-1.2 3.1zm-5.3-13.6c-3.2-.9-6.7-1.3-10.5-1.3h-.3c-3.4 0-6.7.4-9.9 1.2l-.8.2-2.5.7-3.6 1.1-.4.1c2.5-4.3 5.1-8.2 7.8-11.8 1.9-2.4 3.8-4.7 5.7-6.6l.1.6c.8 4.7 3.6 5.2 4.8 5.2l.7-.1.1.5c.7 4.7 3.6 5.2 4.9 5.2.4 0 .8 0 1.1-.2 2-.5 3.6-2.1 5.9-5.8 1.6-2.5 3.2-5.4 4.7-8.4l3.1-6.4 12-.5-.1.2a69.3 69.3 0 0 0-6.2 10 115.3 115.3 0 0 0-8.2 20.5 20.9 20.9 0 0 0-8.4-4.4zm33 33.8l-1.9 2.4a10.3 10.3 0 0 1-3.9 2.9c-1.2.4-2.6.5-4.2.5h-.8c-1.8-.1-3.6-.3-5.4-.8l-2-.7a10 10 0 0 1-2.6-1.4 7.3 7.3 0 0 1-2-1.9l-.7-1.3-.1-.2c-.4-1-.7-2.1-.8-3.3-.2-1.5-.3-3.3-.2-5.2v-.8c.2-3.6.9-7.5 1.8-11.7l.2-.8.3-1.4.5-2a106.1 106.1 0 0 1 8.7-22.3 64.3 64.3 0 0 1 8.3-12.2 6 6 0 0 1 2.5-1.6c2.1-.6 4.4-.8 6.8-.9h.4a46.5 46.5 0 0 1 12.8 1.8l2.6.8 1.8.8.2-.4 1.1-1.8c1-1.6 2-3 2.9-4.1 1.3-1.6 2.2-2.5 2.6-2.6l1.7-.1 2.2.2c1.5.2 2.9.6 4.3 1l2 .7 1.8.7 2.5 1.1c.9.7 1.5 1.3 1.7 1.8v.4c0 .4-.2.9-.7 1.5l-.2.3a220 220 0 0 0-7.6 12.9l-5.5 10.7a177.6 177.6 0 0 0-10.8 27.5h.1c1.2-1.4 2.7-3.6 4.7-6.7l6.3-10.4 7.2-12 .3-.5-1.7 5.2-1.2 4.2c-.8 3-1.5 5.8-2 8.5l-.2 1.3-.2.9c-.3 1.8-.4 3.3-.5 4.6a12.3 12.3 0 0 0 .3 3.2 41.2 41.2 0 0 1-2.4 4.4c-1 1.4-2.6 2.6-4.7 3.7a23.2 23.2 0 0 1-6 2.2c-.8.2-1.6.2-2.3.2-1.1 0-2.2-.2-3.2-.5l-2.4-1.1-2-1.4a15.3 15.3 0 0 1-4.6-6.2l-.3-.9a36.5 36.5 0 0 1-5.5 10.8zm20.5 8.7l-1.4.4-5.2 1.4-6.8 2.1h-.1l-4.2 1.5-.6.2c2.3-1.1 4.5-3.2 6.7-6.3l3.1-4.8c.6.7 1.3 1.4 2.1 2a17.8 17.8 0 0 0 6.4 3.5zm168.3-3.5l-.9.3h-.1l-8.8.2-10 .2-6.2.1-5.4.2-1.5.1-15.4.8c-5.5.2-11.2.7-17.1 1.2-5.9.5-12.1.9-18.2 1.7l-9.3 1.1-4.7.6-4.7.7-9.4 1.4-4.6.7-4.6.9-9 1.7-4.4 1-4.3 1-4.3 1-4.1 1-8 2.2c-2.6.7-5 1.5-7.4 2.3l-6.8 2.3-6.2 2.3-5.4 2.3c-1.7.7-3.2 1.5-4.6 2.2l-2 1-1.8 1-4.9 2.9-.9.7-.5.4-.1.1a7.8 7.8 0 0 1-7.1 1.4 8.6 8.6 0 0 1-4.2-2.8 8.2 8.2 0 0 1 1.4-11.4l.4-.3.5-.3 1.9-1.2c1.6-.9 3.7-2.1 6.4-3.4l2.2-1 2.4-1c1.6-.7 3.4-1.5 5.3-2.1l6.1-2.2 6.8-2.1c2.3-.8 4.8-1.3 7.4-2l8-2 8.4-1.8 4.4-.8 4.5-.8 4.5-.8 4.6-.7 9.4-1.2 4.8-.6 4.8-.5 9.6-.9 4.8-.4 4.8-.3 9.5-.5c6.3-.4 12.5-.5 18.5-.6l13-.2 4.3.1 15.5.2c2.4 0 4.7 0 6.9.2l6.2.3 10.1.4 8.8.4c.9 0 1.6.7 1.8 1.5v.5c-.2.5-.6 1-1.1 1.3zm5.9-1.7l-.9-.1h-.1a6 6 0 0 0-5.6-5.7l-8.8-.4-5-.2-5-.2-6.2-.3-7-.2-15.5-.2-4.4-.1-9.6.1-3.5.1-3.5.1c-4.9.1-10 .2-15.2.5l-3.5.2-2.5.1c.9-.6 1.8-1.4 3-2.5l5.6-6 4.6-5.3c.4.6 1 1.1 1.5 1.6.9.7 1.8 1.3 2.9 1.9a8.6 8.6 0 0 0 2.8 3.8c1.5 1.3 3.4 2.2 5.6 2.9a37.7 37.7 0 0 0 10.9 1.6h1.6l3.8-.2c1.4-.1 2.7-.4 3.8-.7 1.2-.4 2.4-1 3.4-1.6 1-.6 2-1.5 3-2.5s2.3-2.8 4.8-6.4l.1-.1 1.2.9a22.7 22.7 0 0 0 11.9 8.8c3 1.1 6.2 1.6 9.7 1.7h.2c3.7 0 7.6-1.2 11.7-3.5 3.2-1.8 6.4-4.1 9.6-6.8l-.2 3.7a6 6 0 0 0 4.4 6l1.3.2v.5l-1.6-.2c-5.1.1-9.1 3.8-9.3 8.5zm13.9 1.3c-.3 2.2-2 3.9-4.2 4.2h-.7l-1.3-.2a5 5 0 0 1-3.7-4.9 5 5 0 0 1 5-5c1.6 0 3 .7 3.9 1.9.5.5.8 1.2 1 1.9l.2 1.2-.2.9zm42.6-89.8l-2 1.7-.2.1-.6.4-1.9 1.2c-.8.6-1.8 1.3-2.8 2.3-1.1.9-2.3 2.1-3.6 3.4l-2 2.1-2 2.4-2.1 2.7-2.1 2.9-4.2 6.5-.6 1-1.2 2.1-1.7 3.2-.4.8c-2.1 4-4.1 8.1-5.8 12.1l-2.6 6.2-2.1 5.4-1.6 4.3-1 3-2.2 6.7-.9 2.9-.2.7a2 2 0 0 1-1.9 1.5h-.1l-.4-.1a1.9 1.9 0 0 1-1.4-2l.2-4 .3-3.8.3-3 .3-3.2v-.4l.9-6.3.5-3.6.3-1.7.4-2 .2-1.2.6-3.3.6-2.8.8-3.8.1-.3.9-3.7.1-.5.6-2.3.2-.7 1.2-4.1.7-2.3.5-1.4.3-.8c.8-2.5 1.8-5 2.7-7.4l1.7-3.9 1.8-3.7 1.8-3.5 1.9-3.2a78 78 0 0 1 3.7-5.6c1.2-1.7 2.4-3 3.3-4.2l2.4-2.6.9-.9a11.9 11.9 0 0 1 17-.3l.7.7c.8.9 1.4 1.8 1.8 2.8 2.2 4.4 1.5 9.8-2.1 13.5z"/>
  <path d="M74.8 168a229.8 229.8 0 0 0-16.6 5.3l-8.8 3.4c-.8 4.1-1.1 7.9-1 11.3 0 3.5.6 6.5 1.5 9.2 1.1 3 2.3 4.8 3.8 5.3l1.9.5h.5c.4 0 .7 0 1-.2l.5-.2 1.7-1.2 1.3-1.3a67 67 0 0 0 4.2-5.2c1.5-2 3-4.3 4.6-6.7l4.4-7 1.2-2 1.5-2.5 1-1.8.4-.6 2.2-4c.7-1.5 1.4-2.9 2.2-4.2l-7.5 1.9zM66 186.2a240.4 240.4 0 0 1-7.7 10.7l-.2-3.2c0-2.6.2-5.4.6-8.4l6.6-2.5 3.8-1.4-3.1 4.8zm266.1-72.7a56.8 56.8 0 0 1-9.5 12.5c-2.1 2-4.3 3.7-6.6 5a14.1 14.1 0 0 1-6.1 2h-.6c1.2-1.7 2.5-3.3 3.9-4.9l1.6-1.9a66.2 66.2 0 0 1 12-10.3c2-1.2 3.6-2.1 5.3-2.4zm-178.9 12.3l-3.6 7.1-.3.6-3.1 7-.5 1.3-5.3 10.8-4.3 8.7-1 2a215.9 215.9 0 0 1-5 8.9 24.6 24.6 0 0 1-4 5.3c-.7-3.2-.8-6.7-.3-10.5s1.4-7.6 2.5-11.5a77 77 0 0 1 9.9-20.8c1.8-2.8 3.5-5.1 5.2-6.9 1.6-1.8 2.9-2.8 3.7-3l1.3-.2c.6 0 1.2.1 1.7.3l3.1.9z"/>
</svg>
