<?xml version="1.0" encoding="utf-8"?>
<!-- Generator: Adobe Illustrator 18.0.0, SVG Export Plug-In . SVG Version: 6.00 Build 0)  -->
<!DOCTYPE svg PUBLIC "-//W3C//DTD SVG 1.1//EN" "http://www.w3.org/Graphics/SVG/1.1/DTD/svg11.dtd">
<svg version="1.1" id="Layer_1" xmlns="http://www.w3.org/2000/svg" xmlns:xlink="http://www.w3.org/1999/xlink" x="0px" y="0px"
	 viewBox="0 0 397.7 248.2" enable-background="new 0 0 397.7 248.2" xml:space="preserve">
<g>
	<g>
		<rect x="6.8" y="29" transform="matrix(0.9992 -4.040688e-02 4.040688e-02 0.9992 -2.8267 7.175)" width="338.6" height="89.1"/>
	</g>
	<g>
		<g>
			<path fill="#FFFFFF" d="M48.8,86.7c0,7.6,0,11.4,0,19c-4.8,0.1-7.2,0.1-12,0.2c0-7.6,0-11.4,0-18.9C31.4,76.4,26,65.9,20.6,55.3
				c5.2,0,7.8,0,13.1-0.1c3.7,8.9,5.6,13.3,9.3,22.2c3.7-9,5.6-13.5,9.3-22.4c5.1-0.1,7.6-0.2,12.6-0.3
				C59.7,65.4,54.3,76.1,48.8,86.7z"/>
			<path fill="#FFFFFF" d="M109,78.5c-0.1,13.5-8.2,26.9-22.9,27.5c-14.7,0.6-22.8-12.6-22.8-25.9c0-13.4,8.2-26.6,22.8-27.2
				C100.7,52.3,109,65.1,109,78.5z M75.9,79.7c0,12.9,3.7,17.7,10.2,17.5C93,97,96.4,91.8,96.4,79c0-12.8-3.5-17.6-10.3-17.4
				C79.4,61.9,75.9,66.9,75.9,79.7z"/>
			<path fill="#FFFFFF" d="M154.9,84.8c0.2,11.2-9.4,18.4-19.8,19c-10.3,0.6-20.1-5.9-19.7-17.1c0-11.3,0-22.5,0-33.8
				c4.8-0.2,7.2-0.3,12-0.6c0,11.1,0,22.2,0,33.3c0,6.5,2.3,9.5,7.7,9.3c5.5-0.3,7.8-3.5,7.8-10c0-11.1,0-22.2,0-33.3
				c4.8-0.2,7.2-0.4,12-0.6C154.9,62.3,154.9,73.6,154.9,84.8z"/>
			<path fill="#FFFFFF" d="M197.1,58c-5,0.3-7.5,0.4-12.5,0.6c0,13.8,0,27.6,0,41.4c-4.8,0.2-7.2,0.4-12,0.6c0-13.8,0-27.6,0-41.4
				c-5.2,0.3-7.8,0.4-13.1,0.7c0-3.7,0-5.5,0-9.2c12.9-0.7,25.8-1.3,38.7-2C197.8,52.5,197.6,54.3,197.1,58z"/>
			<path fill="#FFFFFF" d="M241.9,80.5c0.2,11.2-9.5,18.4-19.8,18.9c-10.3,0.6-20.1-5.9-19.7-17.1c0-11.3,0-22.5,0-33.8
				c4.8-0.2,7.2-0.4,12-0.6c0,11.1,0,22.2,0,33.3c0,6.5,2.3,9.5,7.7,9.3c5.5-0.3,7.8-3.5,7.8-10c0-11.1,0-22.2,0-33.3
				c4.8-0.2,7.2-0.3,12-0.5C241.9,58,241.9,69.3,241.9,80.5z"/>
			<path fill="#FFFFFF" d="M289,81c0.2,11.9-12.4,15.6-22.1,15.4c-6.5,0.2-9.8,0.3-16.3,0.6c0-16.9,0-33.8,0-50.6
				c5.7-0.2,8.6-0.3,14.3-0.5c8.4-0.7,22,1.1,21.9,12.3c0,6.4-4.6,9.9-9.3,11.1C283.2,70.2,288.9,73,289,81z M262.7,54.4
				c0,4.7,0,7.1,0,11.8c1.8-0.1,2.7-0.1,4.5-0.1c5-0.2,7.6-2.1,7.6-6.4c0-4.2-2.8-5.5-8.5-5.4C264.8,54.3,264.1,54.4,262.7,54.4z
				 M276.7,80.7c0-5.1-3.6-6.9-8.8-6.7c-2.1,0.1-3.2,0.1-5.3,0.2c0,5.5,0,8.2,0,13.7c1.8-0.1,2.6-0.1,4.4-0.1
				C272.7,87.5,276.7,86.2,276.7,80.7z"/>
			<path fill="#FFFFFF" d="M325.5,53.3c-7.1,0-10.7,0-17.8,0.1c0,4.9,0,7.3,0,12.1c6.2-0.1,9.3-0.1,15.6-0.1c0,3.4,0,5,0,8.4
				c-6.2,0-9.3,0-15.6,0.1c0,5.2,0,7.8,0,12.9c7.6-0.1,11.4-0.1,19.1-0.1c0,3.4,0,5.2,0,8.6c-10.3,0-20.7,0.1-31,0.3
				c0-16.9,0-33.8,0-50.6c10.3-0.2,20.7-0.3,31-0.3C326.3,48.1,326,49.9,325.5,53.3z"/>
		</g>
	</g>
	<g>
		<path d="M30.4,245.7c0,1.4-1.1,2.6-2.5,2.6c-1.4,0-2.6-1.2-2.6-2.6c0-1.4,1.1-2.5,2.6-2.5C29.3,243.1,30.4,244.3,30.4,245.7z"/>
		<path d="M48.6,236.8v10.9h-4.4v-10.2c0-1.6-0.5-2-1.4-2c-1,0-1.8,0.7-2.6,1.9v10.2h-4.4v-14.9h3.9l0.3,1.8
			c1.3-1.5,2.7-2.2,4.6-2.2C47.1,232.3,48.6,234,48.6,236.8z"/>
		<path d="M64.9,241.6h-9.2c0.3,2.7,1.5,3.4,3.4,3.4c1.2,0,2.3-0.4,3.6-1.3l1.8,2.5c-1.5,1.2-3.4,2.1-5.8,2.1c-5,0-7.5-3.2-7.5-7.9
			c0-4.5,2.4-8,7-8c4.3,0,6.9,2.8,6.9,7.6C65,240.5,65,241.1,64.9,241.6z M60.6,238.7c0-2-0.6-3.4-2.4-3.4c-1.5,0-2.3,0.9-2.6,3.6h5
			V238.7z"/>
		<path d="M76.9,247c-1.1,0.8-2.7,1.2-4,1.2c-3.3,0-4.9-1.9-4.9-5.4v-6.9h-2.1v-3.1H68v-3.2l4.4-0.5v3.7h3.4l-0.5,3.1h-3v6.9
			c0,1.4,0.5,1.9,1.4,1.9c0.5,0,1-0.1,1.6-0.5L76.9,247z"/>
	</g>
	<g>
		<g>
			<g>
				<path d="M96,234.1c-1.6,0-3.2-0.3-4.9-1c-3-1.2-5.2-3.6-6.3-7.3c-0.6-1.8-0.9-4.4-0.9-7.8c0-3.3,0.2-7.1,0.5-11.1
					c0.1-1.5,0.3-3,0.5-4.6c-0.4,0.9-0.8,1.8-1.2,2.6c-1.7,3.5-3.7,6.5-5.7,9.1c-2.2,2.8-4.8,4.6-7.6,5.6c-4.3,1.4-8.3,2.2-11.9,2.2
					l-0.5,0c-3.8-0.1-7.4-0.8-10.5-2.1c-3.2-1.4-6-3.4-8.4-6.1c-2.3-2.6-4.2-5.8-5.6-9.4c-0.9-2.3-1.5-4.6-1.9-7
					c-3.4,2.4-6.2,4.7-8.4,7c-2.3,2.4-3.4,4.5-3.1,6.1c0,0.2,0.1,0.7,1.2,1.1c1.3,0.5,2.6,1,4,1.2c1.5,0.3,2.7,0.5,3.8,0.5
					c1.2,0.1,2.9,0.2,3.2,1.9c0.1,0.8-0.2,1.8-1.4,2.2l-0.2,0.1l-0.2,0c-3.3,0.6-6.1,0.9-8.5,0.9c-0.5,0-1,0-1.4,0
					c-2.8-0.2-5.1-0.6-6.9-1.5c-1.9-0.9-3.3-2.1-4.2-3.7c-0.8-1.4-1.4-3-1.6-4.7c-0.4-2.4,0-5,1.2-7.7c1.1-2.5,2.9-5.1,5.1-7.8
					c2.2-2.6,4.9-5.2,8-7.8c2.9-2.4,6-4.8,9.4-7c0.7-5.1,1.9-10.3,3.6-15.5c1.8-5.5,4-11,6.5-16.2c2.5-5.2,5.3-10.3,8.4-15
					c3-4.7,6.1-9,9.3-12.7c3.1-3.7,6.2-6.8,9.2-9.2c3-2.5,5.8-4.1,8.3-4.8c2-0.6,4.2-0.9,6.6-0.9c0.4,0,0.8,0,1.2,0
					c2.7,0.1,5.4,0.4,8.1,0.8c2.6,0.4,5,1,7.2,1.7c2.2,0.7,3.8,1.3,4.9,1.9c0.5,0.3,1,0.5,1.3,0.8c0.1,0,0.2,0,0.3,0
					c1,0,1.8,0.1,2.6,0.2c2.4,0.4,3.1,1.8,3.3,2.6c0.2,0.9,0,2.1-1.6,5.9c-1.1,2.6-2.5,5.4-4,8.4c-1.5,3-3.1,5.8-4.7,8.3
					c-1.9,3.1-3.3,4.5-4.7,4.9c-0.2,0.1-0.4,0.1-0.6,0.1c-1.5,0-2.5-1.2-2.9-3.5c-0.2-1.5-0.3-3.3-0.3-5.4c0.1-2.1,0.2-4.4,0.5-6.7
					c0.1-1.1,0.3-2.1,0.4-3c-1.8,0.9-3.8,2.3-5.8,4c-3.4,2.9-6.7,6.5-9.9,10.6c-3.3,4.2-6.4,9-9.2,14.3c-2.1,3.8-4,7.7-5.7,11.7
					c5.3-2.2,10.5-4,15.4-5.5c1.3-0.4,2.5-0.7,3.6-1.1c0.9-0.3,1.7-0.5,2.5-0.6l0.8-0.2c3-0.8,6.2-1.1,9.5-1.2l0.3,0
					c3.6,0,6.9,0.4,9.9,1.2c3.2,0.9,5.8,2.3,7.5,4.1c1.2,1.3,2.9,4.1,0,8.6c-0.2,0.3-0.8,1.3-2.1,4.7c-1.1,2.6-2.2,5.8-3.4,9.4
					c-1.2,3.7-2.4,7.7-3.5,11.9c-1.1,4.2-2.1,8.4-2.8,12.6c-0.7,4-1.2,7.7-1.5,11.2c-0.2,3.2,0,5.8,0.5,7.6c0.2,0.5,0.4,1,0.8,1.6
					c0.5,0.8,1,1.6,1.3,2.4c0.6,1.5,0.4,2.6,0.1,3.3c-0.6,1.5-2.2,2.1-3.3,2.4C98.3,233.9,97.2,234.1,96,234.1z M56.8,183.8
					c-0.6,3.5-0.9,6.8-0.8,9.8c0,3.2,0.5,6.1,1.4,8.6c1.2,3.4,2.3,4,2.6,4.1c0.9,0.3,1.4,0.4,1.8,0.4c0.2,0,0.3,0,0.4,0
					c0.4-0.1,1.2-0.6,2.7-2.1c1.2-1.3,2.6-3,4.1-5c1.4-2,3-4.2,4.5-6.6c1.5-2.4,3-4.7,4.4-7c1.4-2.4,2.6-4.4,3.7-6.3
					c1.1-1.9,1.9-3.4,2.5-4.6c0.1-0.1,0.1-0.2,0.2-0.4c-1,0.3-2,0.5-3,0.8c-2.6,0.7-5.2,1.5-7.8,2.3c-2.9,0.9-5.8,1.9-8.7,3
					C62,181.8,59.4,182.8,56.8,183.8z"/>
			</g>
			<g>
				<path d="M83.4,105.9c0.4,0,0.7,0,1.1,0c2.7,0.1,5.3,0.4,7.8,0.8c2.5,0.4,4.8,1,6.9,1.6c2.1,0.6,3.6,1.2,4.5,1.8
					c0.8,0.4,1.3,0.8,1.5,1.1c0.4,0,0.7,0,1.1,0c0.9,0,1.6,0.1,2.3,0.2c1,0.2,1.5,0.5,1.6,1.1c0.1,0.5-0.4,2-1.5,4.6
					c-1.1,2.6-2.4,5.3-3.9,8.3c-1.5,2.9-3,5.6-4.6,8.1c-1.5,2.5-2.7,3.8-3.6,4c0,0-0.1,0-0.1,0c-0.4,0-0.7-0.6-0.9-1.8
					c-0.2-1.3-0.3-3-0.2-5c0.1-2,0.2-4.2,0.5-6.5c0.3-2.3,0.6-4.5,0.9-6.4c-2.9,0.8-6.2,2.6-9.6,5.6c-3.4,3-6.9,6.6-10.2,10.9
					c-3.3,4.3-6.5,9.2-9.4,14.5c-2.9,5.4-5.5,10.8-7.6,16.4c7-3.1,13.6-5.5,19.6-7.3c1.3-0.4,2.5-0.7,3.6-1.1
					c1.1-0.3,2.3-0.6,3.2-0.8c2.4-0.6,5.4-1.1,9-1.1c0.1,0,0.2,0,0.3,0c3.4,0,6.6,0.4,9.4,1.2c2.9,0.8,5.1,2,6.6,3.6
					c1.5,1.6,1.4,3.6-0.2,6.1c-0.5,0.7-1.3,2.4-2.3,5c-1.1,2.6-2.2,5.8-3.4,9.5c-1.2,3.7-2.4,7.7-3.5,12.1
					c-1.1,4.3-2.1,8.6-2.9,12.7c-0.8,4.1-1.3,7.9-1.5,11.4c-0.2,3.5,0,6.2,0.6,8.3c0.2,0.7,0.6,1.4,1,2.1c0.5,0.7,0.9,1.4,1.1,2
					c0.3,0.7,0.3,1.2,0.1,1.7c-0.2,0.5-0.9,0.9-2,1.3c-0.9,0.3-1.8,0.4-2.8,0.4c-1.4,0-2.7-0.3-4.2-0.8c-2.4-1-4.2-2.9-5.1-6
					c-0.5-1.6-0.8-4-0.8-7.2c0-3.2,0.1-6.9,0.5-10.9c0.4-4.1,0.9-8.3,1.5-12.8c0.7-4.5,1.4-8.8,2.3-12.9c-1.2,3.8-2.4,7.6-3.8,11.6
					c-1.4,4-2.9,7.6-4.6,11c-1.7,3.4-3.5,6.3-5.5,8.7c-2,2.5-4.2,4.1-6.7,5c-4.1,1.4-7.8,2.1-11.3,2.1c-0.1,0-0.3,0-0.4,0
					c-3.6-0.1-6.8-0.7-9.7-2c-2.9-1.3-5.5-3.1-7.7-5.6c-2.2-2.5-3.9-5.4-5.2-8.8c-1.2-3.2-2-6.5-2.2-9.7c-4.8,3.1-8.6,6.1-11.4,9.1
					c-2.8,2.9-4,5.5-3.7,7.8c0.2,1.2,1,2.1,2.4,2.7c1.4,0.6,2.9,1.1,4.4,1.3c1.5,0.3,2.9,0.5,4,0.6c1.1,0.1,1.6,0.2,1.2,0.3
					c-3.2,0.6-5.9,0.9-8.2,0.9c-0.5,0-0.9,0-1.3,0c-2.5-0.1-4.6-0.6-6.1-1.3c-1.5-0.7-2.7-1.7-3.4-2.9c-0.7-1.2-1.2-2.5-1.4-4
					c-0.4-2,0-4.2,1.1-6.6c1.1-2.4,2.7-4.8,4.8-7.3c2.1-2.5,4.7-5,7.7-7.6c3-2.5,6.3-5,9.9-7.4c0.7-5.2,1.9-10.5,3.7-16
					c1.8-5.5,3.9-10.8,6.4-16c2.5-5.2,5.2-10.1,8.2-14.8c3-4.7,6.1-8.9,9.2-12.5c3.1-3.6,6.1-6.6,8.9-9c2.9-2.3,5.4-3.8,7.6-4.4
					C79.2,106.1,81.2,105.9,83.4,105.9 M87.9,171.8c-2.3,0.5-4.8,1.1-7.4,1.8c-2.6,0.7-5.2,1.5-7.8,2.3c-2.9,0.9-5.8,1.9-8.8,3
					c-2.9,1.1-5.9,2.2-8.8,3.4c-0.7,4.1-1.1,7.9-1,11.3c0.1,3.5,0.6,6.5,1.5,9.2c1.1,3,2.3,4.8,3.8,5.3c0.9,0.3,1.7,0.5,2.4,0.5
					c0.4,0,0.7-0.1,1-0.2c1-0.3,2.2-1.2,3.5-2.7c1.3-1.4,2.7-3.2,4.2-5.2c1.5-2,3-4.3,4.6-6.7c1.6-2.4,3-4.7,4.4-7
					c1.4-2.3,2.6-4.4,3.7-6.4c1.1-2,1.9-3.5,2.5-4.7C86.4,174.5,87.1,173.1,87.9,171.8 M83.4,101.9c-2.6,0-5,0.3-7.2,0.9
					c-2.8,0.8-5.8,2.5-9.1,5.2c-3.1,2.5-6.2,5.7-9.4,9.5c-3.2,3.8-6.4,8.2-9.5,12.9c-3.1,4.8-5.9,9.9-8.5,15.2
					c-2.5,5.3-4.8,10.8-6.6,16.4c-1.6,5-2.8,10-3.6,14.9c-3.1,2.2-6.1,4.4-8.8,6.7c-3.2,2.6-5.9,5.3-8.2,8c-2.4,2.8-4.2,5.5-5.4,8.2
					c-1.4,3.1-1.9,6.1-1.4,8.9c0.3,1.9,0.9,3.7,1.9,5.4c1.1,1.9,2.8,3.4,5.1,4.5c2,1,4.5,1.5,7.6,1.7c0.5,0,1,0,1.5,0
					c2.5,0,5.4-0.3,8.9-0.9l0.4-0.1l0.4-0.1c1.8-0.7,2.9-2.5,2.6-4.4c-0.5-3.3-3.8-3.5-5-3.6c-1-0.1-2.2-0.2-3.6-0.5
					c-1.2-0.2-2.5-0.6-3.6-1.1c0,0,0,0,0,0c0.1-0.6,0.6-1.9,2.6-4c1.5-1.6,3.4-3.3,5.6-4.9c0.4,1.4,0.8,2.8,1.4,4.3
					c1.4,3.8,3.5,7.2,6,10c2.6,2.9,5.6,5.1,9.1,6.6c3.4,1.4,7.2,2.2,11.2,2.3c0.2,0,0.3,0,0.5,0c3.8,0,8.1-0.8,12.5-2.3
					c3.2-1.1,6.1-3.2,8.5-6.2c0.9-1.1,1.8-2.3,2.6-3.6c-0.1,2.3-0.2,4.4-0.2,6.4c0,3.6,0.3,6.4,1,8.4c1.7,5.3,5,7.5,7.5,8.5
					c1.9,0.7,3.8,1.1,5.6,1.1c1.3,0,2.7-0.2,3.9-0.6c0.9-0.3,3.5-1.1,4.6-3.6c0.4-1.1,0.8-2.7-0.2-4.8c-0.4-0.9-0.9-1.8-1.5-2.7
					c-0.2-0.3-0.4-0.7-0.5-1c-0.3-1.1-0.7-3.1-0.4-6.9c0.2-3.4,0.7-7.1,1.4-11c0.8-4.1,1.7-8.3,2.8-12.4c1.1-4.2,2.3-8.2,3.5-11.8
					c1.1-3.5,2.3-6.6,3.3-9.2c1.4-3.4,1.9-4.3,2-4.4c3.8-5.8,1.1-9.7-0.3-11.1c-2-2.1-4.9-3.7-8.5-4.6c-3.2-0.9-6.7-1.3-10.5-1.3
					l-0.3,0c-3.4,0-6.7,0.4-9.9,1.2c-0.3,0.1-0.5,0.1-0.8,0.2c-0.8,0.2-1.6,0.4-2.6,0.7c-1.1,0.3-2.3,0.7-3.6,1.1
					c-3.5,1.1-7.2,2.3-10.9,3.7c1.1-2.4,2.3-4.7,3.6-7.1c2.8-5.1,5.9-9.8,9.1-14c3.1-4,6.4-7.5,9.6-10.3c0.7-0.6,1.3-1.1,2-1.6
					c-0.2,2-0.4,4-0.4,5.8c-0.1,2.3,0,4.2,0.3,5.8c0.7,4.7,3.6,5.2,4.8,5.2c0.4,0,0.8-0.1,1.2-0.2c2-0.5,3.6-2.1,5.9-5.7
					c1.6-2.5,3.2-5.4,4.7-8.4c1.6-3,2.9-5.9,4-8.5c1.7-4,2.1-5.6,1.7-7.1c-0.3-1-1.2-3.5-4.9-4.1c-0.8-0.1-1.7-0.2-2.6-0.2
					c-0.3-0.2-0.6-0.4-1-0.6c-1.2-0.7-2.9-1.4-5.2-2.1c-2.2-0.7-4.7-1.3-7.4-1.7c-2.7-0.4-5.5-0.7-8.3-0.8
					C84.2,101.9,83.8,101.9,83.4,101.9L83.4,101.9z M58.6,185.3c2.2-0.9,4.4-1.7,6.6-2.6c2.9-1.1,5.7-2.1,8.6-3
					c2.1-0.7,4.2-1.3,6.3-1.9c-0.2,0.3-0.3,0.6-0.5,0.9c-1,1.8-2.2,3.9-3.6,6.2c-1.3,2.2-2.8,4.5-4.3,6.9c-1.5,2.4-3,4.5-4.4,6.5
					c-1.4,1.9-2.7,3.6-3.9,4.9c-0.9,1-1.4,1.4-1.7,1.5c-0.1,0-0.4-0.1-0.8-0.2c-0.2-0.2-0.8-0.9-1.5-2.9c-0.8-2.3-1.2-5-1.3-8
					C58,191.1,58.2,188.2,58.6,185.3L58.6,185.3z"/>
			</g>
			<g>
				<path d="M129.2,193.7c-0.3,0-0.5,0-0.8,0c-2-0.1-3.9-0.4-5.8-0.9c-1.9-0.5-3.7-1.3-5.2-2.3c-1.8-1.2-3-2.7-3.6-4.5
					c-1-2.6-1.3-6-1.1-10.1c0.3-4,1-8.3,2-12.8c1.1-4.5,2.5-9.1,4.2-13.6c1.7-4.5,3.6-8.7,5.5-12.5c1.9-3.8,4-7,6-9.7
					c2.2-2.9,4.2-4.6,6.1-5.1c2.2-0.6,4.7-0.9,7.3-0.9l0.4,0c2.4,0,4.7,0.2,6.9,0.5c2.3,0.3,4.5,0.8,6.5,1.4
					c1.2,0.3,2.2,0.7,3.1,1.1c1.2-2,2.4-3.6,3.5-5c2-2.5,2.9-3.2,3.9-3.3c0.6-0.1,1.3-0.2,2.1-0.2c0.8,0,1.6,0.1,2.5,0.2
					c1.6,0.2,3.2,0.6,4.7,1.1c1.4,0.5,2.8,1,4,1.5c1.2,0.5,2,0.9,2.6,1.2l0.1,0.1l0.1,0.1c1.4,1,2.1,1.9,2.5,2.8
					c0.6,1.8-0.7,3.5-1.2,4c-0.2,0.2-0.9,1.1-2.7,4.1c-1.4,2.4-3,5.3-4.7,8.4c-1.8,3.3-3.6,6.9-5.4,10.7c-1.8,3.7-3.5,7.4-5.1,11.1
					c-0.3,0.6-0.5,1.2-0.7,1.7c0.8-1.3,1.7-2.8,2.6-4.4l0.5-0.9c2.1-3.5,4.3-7.2,6.6-11.1c2.5-4.2,4.9-8.1,7.1-11.7
					c2.2-3.6,4.1-6.7,5.8-9.4c1.6-2.5,2.8-4.3,3.4-5.2l1-1.3c0.6-0.7,1.3-1.5,2-2.3c0.8-0.8,1.4-1.4,2-1.9c0.6-0.5,1.2-0.7,1.8-0.7
					c1,0,2.1,0.7,2.3,2.2c0.1,0.7,0,1.2-2.1,6.1c-1.2,2.8-2.9,6.3-5.2,11.1c-2.2,4.7-4.5,9.4-6.6,14.1l-1,2.1
					c-2,4.3-3.9,8.4-5.7,12.3c-2.1,4.5-3.9,8.5-5.5,11.9c-1.7,3.7-2.8,5.7-3.5,6.7c-1.2,1.6-3,3-5.4,4.3c-2.2,1.2-4.4,2-6.5,2.4
					c-0.9,0.2-1.8,0.3-2.7,0.3c-1.3,0-2.6-0.2-3.9-0.7c-1.9-0.7-3.6-1.7-5-2.9c-1.4-1.2-2.6-2.6-3.6-4c0,0,0,0,0-0.1
					c-1.5,2.8-3,5.2-4.5,7.3c-2.3,3.3-4.6,5.3-6.9,6.1C132.5,193.4,130.9,193.7,129.2,193.7z M154.1,132.3c-0.3,0-0.5,0-0.8,0.1
					c0,0-0.8,0.3-2.8,2.5c-1.6,1.7-3.2,4-5,6.7c-1.8,2.8-3.6,6-5.3,9.4c-1.7,3.5-3.2,7.1-4.4,10.9c-1.1,3.7-2,7.5-2.5,11.1
					c-0.2,1.8-0.3,3.6-0.3,5.3c0.3-0.4,0.6-0.9,0.9-1.4c1.5-2.5,3.1-5.4,4.9-8.8c1.7-3.3,3.5-6.9,5.4-10.7c1.8-3.8,3.6-7.4,5.3-10.8
					c1.1-2.8,2.4-5.6,3.7-8.3c0.9-1.9,1.8-3.8,2.8-5.6c-0.3-0.1-0.5-0.2-0.8-0.3C154.8,132.3,154.5,132.3,154.1,132.3z"/>
			</g>
			<g>
				<path d="M199.7,115.9c0.2,0,0.3,0.1,0.3,0.4c0,0.3-0.6,2-1.9,5c-1.3,3-3,6.7-5.1,11c-2.1,4.3-4.3,9.1-6.7,14.1
					c-2.3,5.1-4.6,9.9-6.7,14.4c-2.1,4.5-3.9,8.5-5.5,11.8c-1.6,3.4-2.7,5.5-3.3,6.4c-1,1.4-2.6,2.6-4.7,3.7c-2.1,1.1-4.1,1.8-6,2.2
					c-0.8,0.2-1.6,0.2-2.3,0.2c-1.1,0-2.2-0.2-3.2-0.5c-1.7-0.6-3.1-1.5-4.4-2.6c-1.3-1.1-2.4-2.3-3.2-3.6c-0.9-1.3-1.4-2.5-1.6-3.5
					c-2,4.1-4.1,7.7-6.2,10.6c-2.1,2.9-4,4.7-5.9,5.3c-1.2,0.4-2.6,0.6-4.2,0.6c-0.2,0-0.5,0-0.8,0c-1.8-0.1-3.6-0.3-5.3-0.8
					c-1.7-0.5-3.3-1.2-4.7-2.1c-1.4-0.9-2.3-2-2.8-3.4c-0.9-2.4-1.2-5.5-1-9.3c0.3-3.9,0.9-8,2-12.4c1.1-4.4,2.5-8.9,4.2-13.4
					c1.7-4.5,3.5-8.6,5.4-12.3c1.9-3.7,3.9-6.9,5.8-9.4c1.9-2.5,3.6-4,5-4.4c2.1-0.6,4.4-0.8,6.8-0.8c0.1,0,0.2,0,0.4,0
					c2.3,0,4.5,0.2,6.6,0.5c2.3,0.3,4.3,0.8,6.2,1.3c1.9,0.5,3.4,1.1,4.5,1.7c1.6-2.6,3-4.7,4.3-6.3c1.3-1.6,2.1-2.5,2.6-2.6
					c0.5-0.1,1.1-0.1,1.7-0.1c0.7,0,1.4,0.1,2.2,0.2c1.5,0.2,2.9,0.6,4.3,1c1.4,0.5,2.6,0.9,3.8,1.4c1.1,0.5,2,0.9,2.5,1.1
					c1,0.7,1.6,1.3,1.7,1.8c0.2,0.5-0.1,1.2-0.8,2.1c-0.5,0.6-1.4,2.1-2.8,4.4c-1.4,2.4-3,5.2-4.8,8.5c-1.8,3.3-3.6,6.9-5.5,10.7
					c-1.9,3.8-3.6,7.5-5.1,11.1c-1.6,3.6-2.9,6.9-3.9,9.8c-1,2.9-1.6,5.1-1.8,6.6c0,0,0,0.1,0,0.1c0,0,0-0.1,0-0.1c0,0,0,0,0.1-0.1
					c1.2-1.3,2.7-3.6,4.7-6.7c1.9-3.1,4-6.6,6.3-10.4c2.3-3.8,4.7-7.8,7.2-12c2.5-4.2,4.9-8.1,7.1-11.7c2.2-3.6,4.1-6.7,5.8-9.3
					c1.6-2.6,2.7-4.3,3.3-5.1c0.1-0.1,0.4-0.5,1-1.2c0.6-0.7,1.2-1.4,1.9-2.2c0.7-0.7,1.3-1.3,1.8-1.7
					C199.4,116,199.6,115.9,199.7,115.9 M131.7,183.2c1.1-1,2.5-2.7,4-5.3c1.5-2.6,3.2-5.5,4.9-8.9c1.8-3.4,3.6-6.9,5.4-10.7
					c1.8-3.8,3.6-7.4,5.3-10.8c1.1-2.8,2.4-5.6,3.6-8.3c1.3-2.7,2.6-5.3,3.9-7.7c-1-0.2-2-0.5-3.1-0.9c-0.6-0.2-1.2-0.3-1.7-0.3
					c-0.4,0-0.9,0.1-1.3,0.2c-0.8,0.2-2.1,1.3-3.7,3c-1.6,1.8-3.4,4.1-5.2,6.9c-1.8,2.8-3.6,6-5.4,9.6c-1.8,3.6-3.3,7.3-4.5,11.2
					c-1.2,3.9-2,7.7-2.5,11.5C131,176.5,131.1,180,131.7,183.2 M199.7,111.9L199.7,111.9c-1.1,0-2.1,0.4-3,1.1
					c-0.7,0.5-1.4,1.2-2.3,2.1c-0.7,0.8-1.4,1.6-2.1,2.4l-0.2,0.2c-0.4,0.5-0.6,0.8-0.7,0.9l-0.1,0.1l-0.1,0.1
					c-0.6,0.8-1.6,2.3-2.5,3.8c0-0.2-0.1-0.4-0.2-0.6c-0.5-1.4-1.5-2.6-3.2-3.8l-0.3-0.2l-0.3-0.1c-0.6-0.3-1.5-0.7-2.7-1.2
					c-1.3-0.6-2.7-1.1-4.1-1.6c-1.6-0.5-3.3-0.9-5-1.2c-1-0.1-1.9-0.2-2.8-0.2c-0.8,0-1.6,0.1-2.4,0.2c-1.9,0.3-3.3,1.7-5.1,4.1
					c-0.9,1.1-1.8,2.4-2.7,3.8c-0.6-0.2-1.1-0.4-1.8-0.5c-2.1-0.6-4.4-1.1-6.8-1.4c-2.3-0.3-4.8-0.5-7.2-0.5l-0.4,0
					c-2.8,0-5.4,0.3-7.8,1c-2.3,0.6-4.6,2.5-7.2,5.8c-2.1,2.7-4.2,6.1-6.2,10c-2,3.9-3.9,8.2-5.6,12.7c-1.7,4.6-3.2,9.2-4.3,13.9
					c-1.1,4.6-1.8,9-2.1,13.1c-0.3,4.3,0.1,8,1.2,11c0.7,2.2,2.2,4,4.3,5.4c1.7,1.1,3.7,2,5.8,2.6c2,0.6,4.1,0.9,6.3,1
					c0.3,0,0.6,0,0.9,0c1.9,0,3.7-0.2,5.3-0.7l0.1,0l0.1,0c2.7-0.9,5.3-3.1,7.9-6.8c1-1.5,2.1-3.1,3.1-4.8c0.6,0.7,1.3,1.4,2.1,2
					c1.6,1.4,3.5,2.5,5.7,3.3c1.4,0.5,3,0.8,4.5,0.8c1,0,2-0.1,3.1-0.3c2.3-0.5,4.6-1.3,7.1-2.6c2.7-1.4,4.7-3,6-4.9
					c0.8-1.1,1.9-3.1,3.7-7c1.6-3.4,3.5-7.5,5.5-11.9c1.8-3.9,3.7-7.9,5.6-12.2l1-2.2c2.2-4.7,4.4-9.4,6.6-14.1
					c2.3-4.8,4-8.3,5.2-11.2c2.1-4.7,2.4-5.8,2.2-7.2C203.7,113.6,201.9,111.9,199.7,111.9L199.7,111.9z M136.1,169.1
					c0.4-2.2,1-4.5,1.7-6.7c1.1-3.6,2.6-7.2,4.2-10.6c1.7-3.4,3.5-6.5,5.2-9.2c1.6-2.6,3.2-4.7,4.7-6.3c-0.2,0.4-0.4,0.8-0.6,1.2
					c-1.3,2.8-2.5,5.6-3.7,8.4c-1.9,3.8-3.6,7.4-5.2,10.7c-1.8,3.8-3.6,7.3-5.3,10.6C136.8,167.8,136.5,168.4,136.1,169.1
					L136.1,169.1z"/>
			</g>
			<g>
				<path d="M189.9,182.4c-0.7,0-1.6-0.1-2.8-0.3c-1.5-0.3-3.1-0.7-4.7-1.2c-1.7-0.6-3.2-1.4-4.5-2.4c-1.6-1.2-2.6-2.7-2.9-4.4
					c-0.4-2-0.1-4.9,0.7-8.9c0.8-3.8,1.8-8,3.2-12.5c1.4-4.6,3-9.4,4.9-14.1c1.8-4.7,3.8-9.2,5.7-13.2c1.9-4,3.7-7.3,5.3-10
					c2.1-3.3,3.5-4.7,5-4.9c0.5-0.1,1-0.1,1.5-0.1c0.9,0,2,0.1,3.1,0.3c1.6,0.3,3.1,0.7,4.7,1.2c1.6,0.5,3,1.1,4.2,1.7
					c1.2,0.6,2.1,1.1,2.8,1.5l0.1,0l0.1,0.1c1.4,1,2.3,1.9,3,2.8c0.4,0.6,1.5,2.6-0.8,5c-0.1,0.1-0.5,0.6-1.6,2.5
					c-1,1.6-2.1,3.6-3.4,6c-1.3,2.4-2.8,5.2-4.4,8.2c-1,1.9-2,3.8-3,5.8c0.8-1.1,1.6-2.2,2.4-3.3c3.1-4.1,6.3-8.3,9.5-12.3
					c3.2-4,6.3-7.7,9.3-11.1c2.8-3.2,5.5-6,7.7-8.2c3.3-3.2,4.7-3.7,5.7-3.8c0.3,0,0.6,0,0.9,0c1,0,2.2,0.1,3.5,0.4
					c1.5,0.3,3.1,0.8,4.6,1.3c1.5,0.5,3,1.1,4.2,1.7c1.3,0.6,2.3,1.2,2.9,1.7c0.5,0.4,1.1,0.8,1.6,1.3c0.7,0.6,1.2,1.2,1.6,2
					c0.5,1,0.6,2,0.3,3.1c-0.3,0.9-0.9,1.8-2,2.9c-0.1,0.1-0.5,0.5-2,2.7c-1.2,1.7-2.5,3.7-3.9,5.9c-1.5,2.4-3.1,5-4.7,7.7
					c-0.7,1.3-1.5,2.5-2.2,3.8c1.2-1.5,2.5-3,3.7-4.4c3.2-3.8,6.5-7.6,9.9-11.3c3.2-3.6,6.4-7,9.4-10.1c2.8-2.9,5.4-5.4,7.7-7.3
					c3.3-2.8,4.7-3.2,5.6-3.3l0.3,0c1.2,0,2.6,0.2,4.1,0.6c1.6,0.4,3.1,0.9,4.6,1.5c1.5,0.6,2.8,1.2,4,1.9c1.3,0.7,2.2,1.3,2.8,1.8
					l1.5,1.3c0.8,0.7,1.3,1.4,1.6,2.2c0.4,0.9,0.4,2,0,2.9c-0.3,0.9-1,1.8-2.1,2.8c0,0-0.5,0.5-2.4,3.3c-1.5,2.1-3.1,4.6-4.9,7.5
					c-1.9,3-3.9,6.2-5.8,9.5c-2,3.3-3.8,6.6-5.5,9.8c-0.4,0.7-0.7,1.4-1.1,2.1c1.7-2,3.5-4.2,5.5-6.5l0.2-0.2
					c2.9-3.4,5.8-6.9,8.7-10.4c3-3.6,5.8-6.9,8.4-10c2.3-2.7,4.6-5.4,6.8-8c1.5-1.7,2.5-2.9,3.2-3.7l0.6-0.7l0.1-0.1
					c0.1-0.1,0.5-0.4,1.1-1c0.7-0.6,1.4-1.3,2.2-1.9c0.9-0.7,1.6-1.3,2.4-1.7c0.5-0.3,1-0.4,1.5-0.4c0.6,0,1.2,0.2,1.7,0.7
					c0.3,0.3,0.7,0.9,0.7,1.8c0,0.7-0.2,1.2-3.1,5.7c-1.7,2.7-3.9,5.9-6.8,10.2l-2.9,4.2c-1.9,2.8-3.8,5.7-5.9,8.7
					c-3.1,4.7-6.1,9.1-8.8,13.3l-0.3,0.4c-2.6,4-5,7.5-7,10.4c-2.3,3.4-3.6,5.2-4.5,6.1c-1,1-1.9,1.7-2.7,2.3
					c-0.9,0.6-1.9,1.1-2.9,1.4c-1,0.3-2.2,0.5-3.4,0.6c-1.1,0.1-2.3,0.2-3.8,0.2c-0.5,0-1,0-1.5,0c-1.4,0-2.9-0.1-4.4-0.3
					c-2.1-0.2-4-0.7-5.8-1.2c-1.9-0.6-3.6-1.5-4.9-2.6c-1.6-1.3-2.4-2.9-2.6-4.8c-0.1-1.4,0.3-3.4,1.3-6.2c0.9-2.6,2-5.5,3.4-8.6
					c0.6-1.3,1.1-2.6,1.7-3.8c-1.2,1.4-2.4,2.9-3.7,4.3c-2.6,3.1-5.2,6.1-7.7,9.2c-2.7,3.2-4.9,5.9-7,8.2c-2.2,2.5-4,4.5-5.5,5.9
					c-2,2-3.2,2.8-4.4,2.9c-0.2,0-0.5,0-0.8,0c-0.7,0-1.6-0.1-2.8-0.2c-1.6-0.2-3.2-0.5-4.9-1c-1.7-0.5-3.3-1.3-4.7-2.3
					c-1.7-1.2-2.7-2.8-2.9-4.7c-0.2-1.4,0.1-3.4,0.9-6.2c0.7-2.6,1.7-5.6,2.9-8.8c0.5-1.4,1.1-2.8,1.6-4.2c-1.3,1.7-2.6,3.4-3.8,5
					c-2.5,3.3-5,6.6-7.4,9.8c-2.8,3.7-4.9,6.4-6.7,8.7c-2.1,2.7-3.8,4.8-5.3,6.4c-1.9,2.1-3.1,3-4.3,3.2
					C190.6,182.4,190.3,182.4,189.9,182.4z"/>
			</g>
			<g>
				<path d="M282.2,106.6c1,0,2.2,0.2,3.6,0.5c1.5,0.4,3,0.9,4.4,1.4c1.4,0.6,2.7,1.2,3.8,1.8c1.2,0.6,2,1.1,2.5,1.6
					c0.5,0.4,1,0.9,1.5,1.3c0.5,0.5,0.9,0.9,1.1,1.4c0.2,0.5,0.2,1,0,1.6c-0.2,0.5-0.7,1.2-1.6,2c-0.4,0.3-1.3,1.5-2.7,3.6
					c-1.4,2.1-3.1,4.6-5,7.5c-1.9,2.9-3.8,6.1-5.9,9.6c-2,3.5-3.9,6.8-5.6,9.9c-1.7,3.1-3.1,5.9-4.2,8.4c-1.1,2.4-1.7,4.1-1.8,5.1
					c1.6-1.5,3.5-3.7,5.9-6.5c2.4-2.8,5-5.9,7.9-9.3c2.9-3.4,5.8-6.9,8.7-10.4c3-3.6,5.8-6.9,8.4-10c2.6-3.1,4.8-5.7,6.8-7.9
					c1.9-2.2,3.2-3.7,3.8-4.3c0.1-0.1,0.5-0.4,1.2-1.1c0.7-0.6,1.4-1.2,2.1-1.9c0.7-0.6,1.4-1.1,2-1.4c0.2-0.1,0.4-0.2,0.6-0.2
					c0.2,0,0.3,0.2,0.3,0.5c0,0.3-0.9,1.9-2.7,4.7c-1.8,2.8-4.1,6.2-6.8,10.1c-2.7,4-5.6,8.3-8.7,13c-3.1,4.7-6.1,9.1-8.8,13.3
					c-2.8,4.2-5.2,7.8-7.3,10.9c-2.1,3.1-3.5,5-4.3,5.8c-0.9,0.9-1.7,1.5-2.4,2c-0.7,0.5-1.5,0.9-2.4,1.2c-0.9,0.3-1.8,0.5-2.9,0.6
					c-1.1,0.1-2.3,0.2-3.7,0.2c-0.5,0-0.9,0-1.4,0c-1.4,0-2.8-0.1-4.2-0.3c-2-0.2-3.8-0.6-5.5-1.1c-1.7-0.5-3.1-1.3-4.2-2.2
					c-1.1-0.9-1.7-2.1-1.8-3.4c-0.1-1.1,0.3-2.9,1.2-5.4c0.9-2.5,2-5.3,3.3-8.4c1.4-3.1,2.8-6.3,4.5-9.6s3.2-6.2,4.6-8.8
					c-2,2.2-4.2,4.8-6.7,7.7c-2.5,2.9-5.1,5.9-7.7,9c-2.6,3.1-5.2,6.2-7.7,9.2c-2.5,3-4.8,5.7-7,8.1c-2.1,2.4-3.9,4.3-5.4,5.8
					c-1.5,1.5-2.6,2.3-3.2,2.3c-0.2,0-0.3,0-0.6,0c-0.6,0-1.5-0.1-2.6-0.2c-1.5-0.2-3-0.5-4.5-1c-1.5-0.5-2.9-1.1-4.1-2
					c-1.2-0.9-1.9-2-2.1-3.3c-0.1-1.1,0.1-2.9,0.8-5.4c0.7-2.5,1.6-5.4,2.8-8.6c1.2-3.2,2.5-6.4,3.9-9.8c1.4-3.3,2.8-6.3,4.1-9
					c-1.8,2.4-3.9,5.1-6.3,8.2c-2.4,3.1-4.9,6.2-7.4,9.6c-2.5,3.3-5,6.6-7.4,9.8c-2.4,3.2-4.7,6.1-6.7,8.7c-2,2.6-3.8,4.7-5.2,6.3
					c-1.5,1.6-2.5,2.5-3.1,2.6c-0.2,0-0.4,0-0.6,0c-0.6,0-1.4-0.1-2.4-0.3c-1.4-0.2-2.9-0.6-4.4-1.1c-1.5-0.5-2.8-1.2-4-2.1
					c-1.2-0.9-1.9-1.9-2.1-3.2c-0.3-1.7-0.1-4.4,0.7-8.1c0.7-3.7,1.8-7.8,3.1-12.3c1.4-4.5,3-9.2,4.8-13.9c1.9-4.8,3.7-9.1,5.6-13.1
					c1.9-4,3.6-7.2,5.2-9.8c1.6-2.6,2.8-3.9,3.5-4c0.4-0.1,0.8-0.1,1.3-0.1c0.8,0,1.7,0.1,2.7,0.3c1.5,0.3,3,0.6,4.4,1.1
					c1.5,0.5,2.8,1,3.9,1.6c1.2,0.6,2.1,1.1,2.7,1.4c1.1,0.8,2,1.6,2.5,2.3c0.5,0.7,0.3,1.6-0.7,2.5c-0.3,0.3-0.9,1.2-1.8,2.8
					c-1,1.6-2.1,3.6-3.4,6.1c-1.3,2.4-2.8,5.2-4.4,8.2c-1.6,3-3.1,6-4.6,9.1c-1.5,3.1-2.9,6.1-4.1,8.9c-1.3,2.9-2.3,5.3-3.1,7.4
					c1.6-2.4,3.6-5.4,6.2-9.1c2.6-3.7,5.4-7.6,8.4-11.7c3-4.1,6.2-8.2,9.5-12.3c3.3-4.1,6.4-7.8,9.3-11c2.9-3.3,5.4-6,7.6-8
					c2.2-2.1,3.7-3.2,4.4-3.2c0.2,0,0.5,0,0.7,0c0.9,0,1.9,0.1,3.1,0.4c1.5,0.3,2.9,0.7,4.4,1.2c1.5,0.5,2.8,1,4,1.6
					c1.2,0.6,2,1,2.5,1.4c0.5,0.4,1,0.8,1.5,1.2c0.5,0.4,0.9,0.9,1.2,1.4c0.3,0.5,0.3,1,0.2,1.6c-0.2,0.6-0.6,1.2-1.5,2
					c-0.4,0.4-1.1,1.4-2.2,3c-1.1,1.6-2.4,3.6-3.9,6c-1.5,2.3-3.1,4.9-4.7,7.7c-1.7,2.8-3.2,5.6-4.7,8.3c-1.5,2.7-2.8,5.2-4,7.6
					c-1.2,2.4-2,4.3-2.5,5.8c1.9-2.5,4.2-5.6,6.9-9.1c2.8-3.5,5.8-7.2,9-11c3.2-3.8,6.5-7.6,9.8-11.3c3.3-3.7,6.4-7.1,9.3-10
					c2.9-2.9,5.4-5.3,7.6-7.2c2.1-1.8,3.6-2.8,4.4-2.8C282,106.6,282.1,106.6,282.2,106.6 M282.2,102.6c-0.1,0-0.2,0-0.3,0
					c-1.9,0.1-3.8,1.1-6.9,3.7c-2.3,2-4.9,4.5-7.8,7.4c-1.6,1.7-3.3,3.5-5,5.3c0.1-0.1,0.1-0.3,0.1-0.4c0.4-1.6,0.3-3.2-0.5-4.6
					c-0.5-0.9-1.2-1.8-2.1-2.5c-0.6-0.5-1.1-0.9-1.7-1.4c-0.8-0.6-1.8-1.2-3.3-1.9c-1.3-0.6-2.8-1.2-4.4-1.7c-1.6-0.5-3.2-1-4.8-1.3
					c-1.4-0.3-2.7-0.5-3.9-0.5c-0.3,0-0.7,0-1,0c-1.9,0.1-3.8,1.3-6.9,4.3c-2.3,2.2-5,5-7.9,8.3c-1.7,1.9-3.4,3.9-5.1,6
					c1.7-2.4,1.2-4.8,0.1-6.4c-0.8-1.2-1.9-2.2-3.5-3.3l-0.1-0.1l-0.2-0.1c-0.7-0.4-1.7-0.9-2.9-1.5c-1.4-0.7-2.9-1.3-4.5-1.8
					c-1.6-0.5-3.3-0.9-4.9-1.2c-1.2-0.2-2.4-0.3-3.4-0.3c-0.6,0-1.2,0-1.8,0.1c-2.5,0.3-4.4,2.6-6.4,5.8c-1.7,2.7-3.5,6.2-5.4,10.2
					c-1.9,4.1-3.8,8.6-5.7,13.3c-1.9,4.8-3.5,9.6-4.9,14.2c-1.4,4.5-2.4,8.8-3.2,12.6c-0.9,4.2-1.1,7.3-0.7,9.6
					c0.4,2.3,1.7,4.2,3.7,5.7c1.5,1.1,3.2,2,5,2.6c1.7,0.6,3.4,1,5,1.3c1.3,0.2,2.3,0.3,3.1,0.3c0.4,0,0.8,0,1.2-0.1
					c1.7-0.3,3.2-1.3,5.5-3.9c1.5-1.7,3.2-3.8,5.4-6.5c1.8-2.3,3.9-5,6.7-8.7c1.2-1.5,2.3-3.1,3.5-4.6c-0.1,0.3-0.2,0.7-0.3,1
					c-0.9,3.1-1.2,5.3-1,7c0.3,2.5,1.6,4.6,3.7,6.1c1.6,1.1,3.3,2,5.3,2.6c1.7,0.5,3.5,0.9,5.2,1.1c1.3,0.2,2.3,0.2,3.1,0.2
					c0.4,0,0.7,0,1,0c1.7-0.2,3.2-1.2,5.6-3.5c1.5-1.5,3.3-3.5,5.6-6c2.1-2.3,4.4-5,7-8.2c1-1.2,2.1-2.5,3.1-3.7
					c-0.1,0.2-0.2,0.5-0.2,0.7c-1.1,3.1-1.5,5.3-1.4,7c0.2,2.4,1.3,4.6,3.3,6.2c1.5,1.3,3.4,2.2,5.6,2.9c1.9,0.6,4,1,6.2,1.3
					c1.6,0.2,3.2,0.3,4.7,0.3c0.5,0,1.1,0,1.6,0c1.5-0.1,2.8-0.1,3.9-0.2c1.4-0.1,2.7-0.4,3.8-0.7c1.2-0.4,2.4-0.9,3.4-1.6
					c1-0.6,2-1.5,3-2.6c1-1,2.3-2.8,4.8-6.4c2-2.9,4.3-6.4,6.9-10.3l0.4-0.6c3.4-5.2,6.1-9.2,8.8-13.3c2-3,4-5.9,5.8-8.7l2.9-4.3
					c2.9-4.3,5-7.5,6.8-10.2c2.9-4.4,3.4-5.4,3.4-6.8c0-1.3-0.4-2.4-1.2-3.3c-0.8-0.8-1.9-1.3-3.1-1.3c-0.8,0-1.6,0.2-2.4,0.6
					c-0.9,0.5-1.8,1.1-2.8,1.9c-0.8,0.7-1.5,1.3-2.2,2c-0.6,0.6-1,0.9-1.1,1L311,111l-0.2,0.2l-0.6,0.7c-0.7,0.8-1.8,2-3.2,3.7
					c-2.2,2.6-4.5,5.2-6.8,8c-2.5,3-5.2,6.2-8.1,9.6c0.3-0.6,0.7-1.1,1-1.6c1.8-2.8,3.4-5.3,4.9-7.4c1.5-2.2,2.1-2.9,2.2-3
					c1.4-1.2,2.2-2.4,2.6-3.6c0.5-1.4,0.5-2.9-0.1-4.3c-0.4-1.1-1.2-2.1-2.2-3c-0.5-0.5-1-0.9-1.5-1.3c-0.7-0.6-1.7-1.3-3.2-2.1
					c-1.3-0.7-2.7-1.3-4.2-2c-1.6-0.6-3.2-1.2-4.9-1.6C285,102.8,283.5,102.6,282.2,102.6L282.2,102.6z"/>
			</g>
			<g>
				<path d="M311.9,173.2c-3.2,0-6.3-0.6-9-1.5c-2.8-1-5.3-2.4-7.3-4.2c-2.1-1.8-3.8-3.9-5-6.4c-1.2-2.5-1.9-5.2-2-8.1
					c-0.1-4.2,0.6-8.4,2.1-12.4c1.5-4,3.4-7.8,5.7-11.4c2.3-3.6,4.9-7,7.8-10c2.8-3,5.6-5.6,8.3-7.8c2.7-2.2,5.2-3.9,7.3-5.2
					c3.1-1.8,4.4-2,5.2-2c1.1,0,2.2,0.2,3.5,0.7c1.2,0.4,2.5,0.9,3.8,1.4c1.3,0.6,2.6,1.2,3.9,1.8c1.2,0.6,2.3,1.3,3.3,1.9
					c0.7,0.3,1.4,0.8,2.4,1.5c1,0.7,2,1.6,2.9,2.5c0.9,0.9,1.7,1.9,2.4,2.8c0.9,1.3,1.3,2.4,1.3,3.5c-0.1,1.1-0.6,2.4-1.9,4.2
					c-1,1.5-2.4,3.2-4,5.1c-1.6,1.8-3.5,3.7-5.6,5.6c-2.1,1.9-4.2,3.7-6.3,5.3c-2.1,1.6-4.3,2.9-6.3,4c-2.2,1.1-4.2,1.7-6.1,1.7
					l-0.2,0c-1.7,0-3.1-0.2-4.3-0.4c-0.5-0.1-0.9-0.2-1.3-0.3c-1.3,2.2-2.4,4.4-3.2,6.5c-0.9,2.4-1.4,4.5-1.4,6.3
					c0,0.9,0.1,1.4,0.1,1.6c0.1,0.1,0.2,0.1,0.2,0.1c2.2,0,4.6-0.6,7.3-1.9c2.8-1.4,5.7-3.1,8.7-5.1c2.9-2.1,5.9-4.4,8.8-6.8
					c3.1-2.7,5.7-5,8.1-7.2c2.6-2.4,4.6-4.3,6.2-5.9c1.7-1.7,2.9-2.8,3.6-3.4l0.1-0.1c0.8-0.6,1.7-1.3,2.7-2.1c1-0.8,2-1.6,2.9-2.2
					c1.1-0.8,2-1.3,2.9-1.5c0.2-0.1,0.5-0.1,0.7-0.1c0.7,0,1.4,0.3,1.9,0.8c0.4,0.4,0.8,1.1,0.7,2.2c-0.1,0.9-0.6,2.1-2.9,5.5
					c-1.6,2.4-3.8,5.2-6.6,8.7c-2.6,3.2-5.6,6.7-9.1,10.6c-3.4,3.8-6.9,7.2-10.5,10.4c-3.6,3.2-7.3,5.8-10.9,7.9
					c-3.8,2.2-7.3,3.3-10.7,3.3L311.9,173.2z M332.6,123.7c-1.6,1-3.2,2.3-4.9,3.7c-2,1.7-3.9,3.6-5.8,5.7c-0.6,0.6-1.2,1.3-1.7,2
					c0.1-0.1,0.3-0.1,0.4-0.2c2.2-1.3,4.3-2.8,6.3-4.7c2-1.9,3.9-4,5.5-6.1C332.4,123.9,332.5,123.8,332.6,123.7z"/>
			</g>
			<g>
				<path d="M325,106.2C325.1,106.2,325.1,106.2,325,106.2c0.8,0,1.8,0.2,2.9,0.6c1.1,0.4,2.4,0.8,3.7,1.4c1.3,0.6,2.5,1.1,3.8,1.8
					c1.2,0.6,2.3,1.3,3.2,1.9c0.6,0.3,1.3,0.8,2.2,1.4c0.9,0.7,1.8,1.4,2.6,2.3c0.8,0.8,1.5,1.7,2.2,2.6c0.6,0.9,0.9,1.6,0.9,2.2
					c0,0.7-0.5,1.7-1.5,3.2c-1,1.5-2.3,3.1-3.9,4.9c-1.6,1.8-3.4,3.6-5.5,5.5c-2,1.9-4.1,3.6-6.1,5.1c-2,1.5-4,2.8-6,3.8
					c-1.9,1-3.6,1.5-5.2,1.5c0,0-0.1,0-0.1,0c-1.6,0-2.9-0.2-3.9-0.4c-1-0.2-1.9-0.5-2.6-0.9c-1.8,2.9-3.2,5.6-4.2,8.3
					c-1,2.7-1.5,5-1.5,7.1c0,1.7,0.3,2.7,0.8,3.1c0.5,0.4,1,0.6,1.5,0.6c0,0,0.1,0,0.1,0c2.5,0,5.2-0.7,8.1-2.1
					c3-1.4,5.9-3.2,8.9-5.3c3-2.1,6-4.4,8.9-7c2.9-2.5,5.7-4.9,8.2-7.2c2.5-2.3,4.6-4.2,6.3-5.9c1.7-1.7,2.8-2.7,3.4-3.2
					c0.9-0.6,1.8-1.3,2.8-2.2c1-0.8,1.9-1.5,2.8-2.2c0.8-0.6,1.6-1,2.1-1.1c0.1,0,0.2,0,0.3,0c0.4,0,0.6,0.3,0.5,0.8
					c0,0.6-0.9,2.1-2.6,4.5c-1.7,2.4-3.9,5.3-6.5,8.6c-2.7,3.3-5.7,6.8-9,10.5c-3.4,3.7-6.8,7.1-10.3,10.2
					c-3.5,3.1-7.1,5.7-10.6,7.7c-3.5,2-6.7,3-9.7,3c0,0-0.1,0-0.1,0c-3,0-5.8-0.5-8.4-1.4c-2.6-0.9-4.8-2.2-6.7-3.8
					c-1.9-1.6-3.4-3.5-4.5-5.8c-1.1-2.2-1.7-4.6-1.7-7.2c-0.1-4,0.6-7.9,2-11.7c1.4-3.9,3.3-7.5,5.5-11c2.3-3.5,4.8-6.7,7.5-9.7
					c2.8-2.9,5.5-5.5,8.1-7.6c2.7-2.2,5-3.8,7.1-5C322.8,106.8,324.3,106.2,325,106.2 M337.7,119.1c-1.6,0.4-3.4,1.1-5.4,2.3
					c-1.9,1.2-3.9,2.7-6,4.4c-2,1.8-4,3.7-6,5.9c-2,2.2-3.8,4.5-5.5,6.8c0.1,0,0.1,0,0.1,0c0,0,0.1,0,0.1,0c2,0,4.1-0.7,6.4-2
					c2.3-1.3,4.5-3,6.6-5c2.1-2,4-4.1,5.7-6.4C335.6,123,336.9,121,337.7,119.1 M325,102.2c-1.6,0-3.4,0.7-6.2,2.3
					c-2.3,1.3-4.8,3.1-7.6,5.4c-2.8,2.3-5.7,5-8.5,8c-2.9,3.1-5.6,6.5-8,10.2c-2.4,3.7-4.4,7.7-5.9,11.8c-1.6,4.3-2.3,8.7-2.3,13.2
					c0.1,3.2,0.8,6.2,2.2,9c1.3,2.7,3.2,5,5.5,7c2.2,1.9,4.9,3.5,8,4.5c3,1.1,6.2,1.6,9.7,1.7l0.2,0c3.7,0,7.6-1.2,11.6-3.5
					c3.7-2.1,7.5-4.9,11.2-8.1c3.6-3.2,7.2-6.7,10.7-10.5c3.5-3.9,6.5-7.4,9.2-10.7c2.9-3.5,5.1-6.4,6.7-8.8
					c2.7-3.8,3.2-5.2,3.3-6.5c0.1-1.8-0.6-3-1.2-3.7c-0.9-0.9-2-1.4-3.3-1.4c-0.4,0-0.7,0-1.1,0.1c-1.1,0.3-2.3,0.8-3.6,1.8
					c-0.9,0.7-1.9,1.4-3,2.3c-0.9,0.8-1.8,1.4-2.6,2l-0.1,0.1l-0.1,0.1c-0.8,0.6-2,1.7-3.8,3.5c-1.6,1.5-3.6,3.4-6.2,5.8
					c-2.3,2.1-5,4.5-8.1,7.1c-2.8,2.4-5.7,4.7-8.6,6.7c-2.8,2-5.7,3.7-8.4,5c-1.7,0.8-3.3,1.3-4.7,1.6c0.1-1.5,0.5-3.2,1.2-5.2
					c0.6-1.6,1.4-3.3,2.3-4.9c1.3,0.3,2.7,0.4,4.6,0.5l0.2,0c2.2,0,4.5-0.6,7-1.9c2.1-1.1,4.4-2.5,6.6-4.2c2.1-1.6,4.3-3.4,6.5-5.4
					c2.1-2,4.1-3.9,5.7-5.8c1.8-2,3.1-3.7,4.2-5.3c1.5-2.2,2.1-3.7,2.2-5.2c0.1-1.5-0.4-3.1-1.6-4.7c-0.7-1-1.6-2.1-2.6-3.1
					c-1-1-2-1.9-3.1-2.7c-1-0.7-1.8-1.3-2.6-1.7c-1-0.7-2.2-1.3-3.4-2c-1.3-0.7-2.7-1.3-4-1.9c-1.4-0.6-2.7-1.1-4-1.5
					c-1.5-0.5-2.8-0.7-4-0.8L325,102.2L325,102.2L325,102.2z"/>
			</g>
			<g>
				<path d="M127.3,230.2c-3.1,0-6-1.4-8-3.9c-1.7-2.1-2.4-4.8-2.1-7.5s1.7-5.1,3.8-6.7c0.1-0.1,0.3-0.2,0.5-0.4l0.5-0.3l2-1.2
					c1.7-1,3.8-2.2,6.7-3.5l0.7-0.3c0.5-0.2,1-0.5,1.5-0.7l3.6-1.5c1.4-0.6,2.8-1.2,4.3-1.7c0.6-0.2,1.3-0.5,1.9-0.7
					c1.3-0.5,2.7-1,4.2-1.5l6.9-2.1c1.6-0.5,3.3-1,5-1.4c0.8-0.2,1.6-0.4,2.5-0.6c0.8-0.2,1.5-0.4,2.2-0.6c1.9-0.5,3.8-1,5.9-1.4
					l8.4-1.8c1.4-0.3,2.9-0.6,4.4-0.8l10-1.7c1.2-0.2,2.5-0.4,3.7-0.6l14.1-1.8c1.1-0.1,2.1-0.2,3.2-0.3c0.6,0,1.1-0.1,1.7-0.2
					l14.4-1.3l4.9-0.3l9.5-0.5c5.1-0.4,10.2-0.4,15.1-0.5c1.2,0,7-0.1,7-0.1c3.3-0.1,6.4-0.1,9.6-0.1c1.5,0,2.9,0,4.3,0.1l15.5,0.2
					c2.6,0,4.8,0.1,7,0.2l25,1.1c1,0,2,0.5,2.7,1.2c0.7,0.8,1.1,1.7,1,2.8c-0.1,2-1.7,3.7-3.8,3.7l-25,0.5c-2.2,0-4.6,0.1-6.8,0.2
					l-15.4,0.8c-4.4,0.2-8.8,0.5-13.6,0.9c0,0-5.8,0.5-7,0.6c-4.8,0.4-9.7,0.8-14.7,1.4l-9.4,1.1l-4.7,0.6l-14,2.1
					c-0.5,0.1-1.1,0.2-1.7,0.3c-1,0.1-2,0.3-2.9,0.5l-13.6,2.6c-1.2,0.2-2.3,0.5-3.4,0.7l-9.5,2.2c-1.4,0.3-2.7,0.6-4,1l-8,2.2
					c-1.8,0.5-3.5,1-5.2,1.6c-0.7,0.2-1.4,0.5-2.1,0.7c-0.8,0.3-1.6,0.5-2.4,0.8c-1.5,0.5-3,1-4.3,1.5l-6.2,2.4
					c-1.2,0.5-2.3,1-3.4,1.5c-0.7,0.3-1.3,0.6-1.9,0.8c-1.3,0.5-2.4,1.1-3.5,1.6c-0.4,0.2-3.1,1.5-3.1,1.5c-0.3,0.2-0.7,0.4-1,0.6
					c-0.2,0.1-0.4,0.2-0.6,0.4c-2.1,1.2-3.7,2.2-4.7,2.8l-0.9,0.7l-0.5,0.4C131.7,229.5,129.6,230.2,127.3,230.2z"/>
			</g>
			<g>
				<path d="M275.3,186.1c1.5,0,2.9,0,4.3,0.1c5.5,0.1,10.7,0.1,15.5,0.2c2.4,0,4.7,0.1,6.9,0.2c2.2,0.1,4.3,0.2,6.2,0.3
					c3.9,0.2,7.3,0.3,10.1,0.4c5.6,0.2,8.8,0.4,8.8,0.4c1,0,1.8,0.9,1.8,1.9c0,1-0.8,1.8-1.8,1.8l-0.1,0c0,0-3.2,0.1-8.8,0.2
					c-2.8,0.1-6.2,0.1-10,0.2c-1.9,0-4,0.1-6.2,0.1c-2.2,0-4.5,0.1-6.8,0.2c-4.8,0.2-9.9,0.5-15.4,0.8c-5.5,0.2-11.2,0.7-17.1,1.2
					c-5.9,0.5-12.1,0.9-18.2,1.7c-3.1,0.4-6.2,0.7-9.3,1.1c-1.6,0.2-3.1,0.4-4.7,0.6l-4.7,0.7c-3.1,0.5-6.2,1-9.4,1.4
					c-1.6,0.2-3.1,0.4-4.6,0.7c-1.5,0.3-3.1,0.6-4.6,0.9c-3,0.6-6.1,1.2-9,1.7c-1.5,0.3-3,0.6-4.4,1c-1.5,0.3-2.9,0.7-4.3,1
					c-1.4,0.3-2.8,0.7-4.3,1c-1.4,0.3-2.8,0.6-4.1,1c-2.7,0.8-5.4,1.5-7.9,2.2c-2.6,0.7-5,1.5-7.4,2.3c-2.4,0.8-4.7,1.5-6.8,2.3
					c-2.2,0.8-4.2,1.6-6.2,2.3c-1.9,0.8-3.7,1.6-5.4,2.3c-1.7,0.7-3.2,1.5-4.6,2.2c-0.7,0.3-1.4,0.7-2,1c-0.6,0.3-1.2,0.7-1.8,1
					c-2.3,1.2-3.9,2.3-4.9,2.9c-0.4,0.3-0.7,0.5-0.9,0.7c-0.3,0.2-0.5,0.4-0.5,0.4l-0.1,0.1c-1.5,1.2-3.2,1.7-5,1.7
					c-2.4,0-4.8-1.1-6.4-3.1c-2.8-3.5-2.1-8.6,1.4-11.4c0.1-0.1,0.3-0.2,0.4-0.3c0,0,0.2-0.1,0.5-0.3c0.4-0.3,1.1-0.7,1.9-1.2
					c1.6-0.9,3.7-2.1,6.4-3.4c0.7-0.3,1.4-0.7,2.2-1c0.8-0.3,1.5-0.7,2.4-1c1.6-0.7,3.4-1.5,5.3-2.1c1.9-0.7,3.9-1.5,6.1-2.2
					c2.2-0.7,4.4-1.4,6.8-2.1c2.4-0.8,4.9-1.3,7.4-2c2.6-0.6,5.2-1.4,8-1.9c2.7-0.6,5.6-1.2,8.4-1.8c1.4-0.3,2.9-0.6,4.4-0.8
					c1.5-0.2,3-0.5,4.5-0.8c1.5-0.3,3-0.5,4.5-0.8c1.5-0.3,3.1-0.5,4.6-0.7c3.1-0.4,6.2-0.8,9.4-1.2c1.6-0.2,3.2-0.4,4.7-0.6
					c1.6-0.2,3.2-0.3,4.8-0.5c3.2-0.3,6.4-0.6,9.6-0.9l4.8-0.4c1.6-0.1,3.2-0.2,4.8-0.3c3.2-0.2,6.4-0.3,9.5-0.5
					c6.3-0.4,12.5-0.5,18.5-0.6C266.8,186.2,271.1,186.1,275.3,186.1 M275.3,182.1c-3.1,0-6.3,0.1-9.6,0.1c-1.2,0-2.3,0-3.5,0.1
					c-1.2,0-2.3,0-3.5,0.1c-4.9,0.1-10,0.2-15.2,0.5l-3.7,0.2l-5.9,0.3l-4.8,0.3l-0.1,0l-0.1,0l-4.8,0.4l-3.5,0.3l-6.1,0.6
					c-0.6,0.1-1.1,0.1-1.7,0.2c-1.1,0.1-2.1,0.2-3.3,0.3l-3,0.4l-1.7,0.2l-9.3,1.2c-1.3,0.1-2.6,0.4-3.8,0.6l-1,0.2l-3.2,0.5
					l-1.4,0.2l-2.8,0.5l-1.7,0.3c-1.5,0.3-3,0.5-4.6,0.9l-8.4,1.8c-2.1,0.4-4,0.9-5.9,1.4c-0.7,0.2-1.5,0.4-2.2,0.6l0,0l0,0
					c-0.8,0.2-1.6,0.4-2.4,0.6c-1.7,0.4-3.4,0.9-5.1,1.4l-6.8,2.1l-0.1,0l-0.1,0c-1.5,0.5-2.9,1-4.2,1.5c-0.7,0.2-1.3,0.5-1.9,0.7
					c-1.6,0.5-3.1,1.2-4.4,1.7c-0.4,0.2-0.8,0.3-1.1,0.5l-2.4,1l0,0l0,0c-0.5,0.2-1.1,0.5-1.6,0.7c-0.2,0.1-0.5,0.2-0.7,0.3
					c-2.9,1.3-5.1,2.6-6.7,3.5l-0.1,0l-0.1,0l-1.2,0.8l-0.7,0.4l-0.1,0l-0.1,0l-0.5,0.3c-0.2,0.1-0.4,0.3-0.6,0.4
					c-2.5,2-4.2,4.9-4.6,8.1c-0.4,3.2,0.5,6.4,2.5,8.9c2.3,3,5.8,4.7,9.5,4.7c2.7,0,5.3-0.9,7.4-2.6l0.1-0.1l0.4-0.3l0.1-0.1
					l0.7-0.5c0.9-0.6,2.5-1.6,4.5-2.7c0.2-0.1,0.5-0.3,0.7-0.4c0.3-0.2,0.6-0.4,1-0.5l0.9-0.4l1.1-0.5c0.3-0.2,0.7-0.4,1.1-0.5
					c1-0.5,2.1-1.1,3.3-1.5l0,0l0,0c0.6-0.3,1.3-0.6,1.9-0.8c1.1-0.5,2.2-1,3.4-1.4l3.6-1.3l2.6-1l0,0l0,0c1.3-0.5,2.7-1,4.2-1.4
					c0.8-0.3,1.6-0.5,2.4-0.8c0.7-0.2,1.4-0.5,2.1-0.7c1.6-0.5,3.3-1.1,5-1.5l0,0l0,0l5.6-1.5l2.4-0.7l0,0l0,0
					c1.2-0.4,2.5-0.7,3.9-1l0.1,0l1.7-0.4l2.6-0.6l2.6-0.6l1.7-0.4l0.9-0.2c1.1-0.3,2.2-0.5,3.2-0.7l0,0l0,0l4.8-0.9l4.2-0.8
					l2.8-0.5l1.8-0.4c0.9-0.2,1.8-0.3,2.8-0.5c0.6-0.1,1.1-0.2,1.7-0.3l2.6-0.4l6.7-1l4.6-0.7l4.6-0.5l3.8-0.4l5.5-0.6l0,0l0,0
					c4.9-0.6,9.8-1,14.6-1.4c1.2-0.1,2.3-0.2,3.5-0.3c1.2-0.1,2.3-0.2,3.5-0.3c4.7-0.4,9.2-0.8,13.4-0.9l0,0l0,0l1.4-0.1l13.9-0.7
					c2.2-0.1,4.5-0.2,6.7-0.2l6.2-0.1l8.2-0.2l1.9,0l8.8-0.2l0.1,0c3.1-0.1,5.6-2.5,5.8-5.6c0.1-1.6-0.5-3.1-1.5-4.2
					c-1.1-1.2-2.5-1.8-4.1-1.9l-8.8-0.4l-5-0.2l-5-0.2l-6.2-0.3c-2.3-0.1-4.7-0.2-7-0.2l-15.5-0.2
					C278.4,182.1,276.9,182.1,275.3,182.1L275.3,182.1z"/>
			</g>
			<g>
				<path d="M342.8,196.9c-3.9,0-7-3.2-7-7c0-3.8,3.2-7,7-7c3.8,0,7,3.1,7,7C349.8,193.7,346.7,196.9,342.8,196.9z"/>
			</g>
			<g>
				<path d="M342.8,184.9c2.8,0,5,2.3,5,5c0,2.8-2.2,5-5,5c-2.8,0-5-2.3-5-5C337.8,187.1,340,184.9,342.8,184.9 M342.8,180.9
					c-5,0-9,4-9,9c0,5,4.1,9,9,9c5,0,9-4.1,9-9C351.8,184.9,347.8,180.9,342.8,180.9L342.8,180.9z"/>
			</g>
			<g>
				<path d="M344.7,178.6c-0.3,0-0.7,0-1-0.1c-1.8-0.5-3-2.2-2.9-4l0,0c0,0,0.1-1.5,0.3-4c0.2-2.3,0.5-5.9,1-10.5
					c1-7.9,2.8-19.8,6.1-31.8c0.8-2.9,1.7-5.8,2.6-8.6c0.9-2.6,1.9-5.3,3-8.3c0.4-0.9,0.8-1.8,1.1-2.7l0.5-1.2
					c0.4-1,0.9-1.8,1.3-2.7l0.5-1.1l1.9-3.6c0.5-0.9,0.9-1.7,1.4-2.4l0.5-0.9c1.2-2,2.6-4.1,3.9-5.8c0.9-1.3,1.9-2.5,2.8-3.5
					l0.6-0.7c0.7-0.9,1.4-1.5,1.9-2.1c0.2-0.2,0.4-0.4,0.6-0.6l0.9-0.9c2.7-2.8,6.3-4.3,10.1-4.3c3.6,0,7,1.4,9.7,3.9
					c5.6,5.3,5.8,14.2,0.4,19.8c-0.7,0.7-1.5,1.4-2.3,1.9l-0.9,0.6c-0.1,0.1-0.3,0.2-0.6,0.4c-0.3,0.2-0.7,0.5-1.2,0.8
					c-0.2,0.2-0.5,0.4-0.7,0.6c-0.6,0.5-1.3,1-2,1.6l-0.1,0.1c-1,0.8-2.2,2-3.4,3.3l-1.9,2.1l-2,2.4l-2,2.6c-0.2,0.3-0.5,0.6-0.7,1
					c-0.4,0.6-0.9,1.2-1.3,1.9c-1.6,2.3-2.9,4.4-4.1,6.4c-1.4,2.3-2.7,4.6-3.9,7c-5.4,10.1-9.5,20.7-12,27.8
					c-1.5,4.2-2.5,7.5-3.2,9.6c-0.7,2.3-1,3.6-1.1,3.6l0,0.1C348,177.4,346.5,178.6,344.7,178.6z"/>
			</g>
			<g>
				<path d="M381.7,80.5c3,0,6,1.1,8.3,3.3c4.8,4.6,5,12.2,0.4,16.9c-0.6,0.6-1.3,1.2-2,1.7l-0.2,0.1c0,0-0.2,0.1-0.6,0.4
					c-0.4,0.3-1.1,0.7-1.8,1.2c-0.8,0.6-1.8,1.3-2.8,2.3c-1.1,0.9-2.3,2.1-3.6,3.4c-0.6,0.7-1.3,1.4-2,2.1c-0.7,0.8-1.3,1.6-2.1,2.4
					c-0.7,0.9-1.4,1.8-2.1,2.7c-0.7,1-1.4,1.9-2.1,2.9c-1.4,2-2.8,4.2-4.2,6.5c-1.4,2.3-2.7,4.6-4,7.1c-5.1,9.7-9.3,20.1-12.1,28
					c-1.4,4-2.5,7.3-3.2,9.7c-0.7,2.4-1.1,3.7-1.1,3.7l0,0c-0.2,0.9-1,1.4-1.9,1.4c-0.2,0-0.3,0-0.5-0.1c-0.9-0.2-1.5-1.1-1.4-2
					c0,0,0.1-1.5,0.2-4c0.2-2.5,0.5-6.1,1-10.4c1-8.6,2.9-20.1,6-31.5c0.8-2.9,1.6-5.7,2.6-8.5c0.9-2.8,1.9-5.6,3-8.2
					c0.5-1.3,1.1-2.6,1.7-3.9c0.6-1.3,1.2-2.5,1.8-3.7c0.6-1.2,1.2-2.4,1.8-3.5c0.6-1.1,1.3-2.2,1.9-3.2c1.3-2.1,2.5-4,3.7-5.6
					c1.2-1.7,2.4-3,3.3-4.2c1-1.2,1.9-2,2.4-2.6c0.6-0.6,0.9-0.9,0.9-0.9C375.4,81.8,378.6,80.5,381.7,80.5 M381.7,76.5L381.7,76.5
					c-4.4,0-8.5,1.8-11.6,4.9l-0.9,0.9l0,0l0,0c-0.2,0.2-0.3,0.4-0.5,0.6c-0.5,0.5-1.2,1.3-2,2.2c-0.2,0.3-0.4,0.5-0.6,0.8
					c-0.8,1-1.9,2.2-2.9,3.7c-1.4,1.8-2.7,3.9-3.9,5.8l0,0.1l0,0.1l-0.5,0.9c-0.5,0.8-0.9,1.6-1.4,2.4l0,0l0,0l-0.1,0.3l-1.7,3.3
					l0,0.1l0,0.1l-0.5,1.1c-0.4,0.9-0.8,1.8-1.3,2.7l0,0l0,0c-0.2,0.4-0.4,0.8-0.5,1.2c-0.4,0.9-0.8,1.8-1.2,2.7
					c-1.2,3-2.2,5.8-3.1,8.5c-0.9,2.8-1.8,5.8-2.6,8.7c-3.3,12.1-5.1,24.1-6.1,32c-0.6,4.6-0.9,8.3-1,10.6c-0.2,2.5-0.3,4-0.3,4.1
					c-0.1,2.8,1.7,5.3,4.4,6c0.5,0.1,1,0.2,1.5,0.2c2.7,0,5.1-1.8,5.8-4.4c0,0,0.4-1.3,1-3.6c0.6-2.1,1.7-5.4,3.1-9.5
					c2.5-7,6.5-17.5,11.8-27.5c1.2-2.4,2.5-4.7,3.9-6.9c1.2-2,2.5-4,4-6.3c0.4-0.6,0.8-1.2,1.3-1.8c0.3-0.3,0.5-0.7,0.7-1l2-2.6
					l0.9-1.1l1-1.2l0.9-1l1-1.1c1.2-1.2,2.3-2.3,3.2-3.1l0.1-0.1l0.1-0.1c0.6-0.6,1.2-1,1.8-1.5c0.3-0.2,0.5-0.4,0.8-0.6
					c0.4-0.3,0.7-0.5,1-0.7c0.2-0.2,0.5-0.3,0.7-0.4l0.6-0.4l0.2-0.1l0,0l0,0c0.9-0.6,1.8-1.4,2.6-2.2c6.1-6.4,5.9-16.5-0.5-22.6
					C389.8,78.1,385.9,76.5,381.7,76.5L381.7,76.5z"/>
			</g>
		</g>
		<g>
			<g>
				<g>
					<g>
						<path fill="#FFFFFF" d="M90.4,228.4c-1.6,0-3.2-0.3-4.9-1c-3-1.2-5.2-3.6-6.3-7.3c-0.6-1.8-0.9-4.4-0.9-7.8
							c0-3.3,0.2-7.1,0.5-11.1c0.1-1.5,0.3-3,0.5-4.6c-0.4,0.9-0.8,1.8-1.2,2.6c-1.7,3.5-3.7,6.5-5.7,9.1c-2.2,2.8-4.8,4.6-7.6,5.6
							c-4.3,1.4-8.3,2.2-11.9,2.2l-0.5,0c-3.8-0.1-7.4-0.8-10.5-2.1c-3.2-1.4-6-3.4-8.4-6.1c-2.3-2.6-4.2-5.8-5.6-9.4
							c-0.9-2.3-1.5-4.6-1.9-7c-3.4,2.4-6.2,4.7-8.4,7c-2.3,2.4-3.4,4.5-3.1,6.1c0,0.2,0.1,0.7,1.2,1.1c1.3,0.5,2.6,1,4,1.2
							c1.5,0.3,2.7,0.5,3.8,0.5c1.2,0.1,2.9,0.2,3.2,1.9c0.1,0.8-0.2,1.8-1.4,2.2l-0.2,0.1l-0.2,0c-3.3,0.6-6.1,0.9-8.5,0.9
							c-0.5,0-1,0-1.4,0c-2.8-0.2-5.1-0.6-6.9-1.5c-1.9-0.9-3.3-2.1-4.2-3.7c-0.8-1.4-1.4-3-1.6-4.7c-0.4-2.4,0-5,1.2-7.7
							c1.1-2.5,2.9-5.1,5.1-7.8c2.2-2.6,4.9-5.2,8-7.8c2.9-2.4,6-4.8,9.4-7c0.7-5.1,1.9-10.3,3.6-15.5c1.8-5.5,4-11,6.5-16.2
							c2.5-5.2,5.3-10.3,8.4-15c3-4.7,6.1-9,9.3-12.7c3.1-3.7,6.2-6.8,9.2-9.2c3-2.5,5.8-4.1,8.3-4.8c2-0.6,4.2-0.9,6.6-0.9
							c0.4,0,0.8,0,1.2,0c2.7,0.1,5.4,0.4,8.1,0.8c2.6,0.4,5,1,7.2,1.7c2.2,0.7,3.8,1.3,4.9,1.9c0.5,0.3,1,0.5,1.3,0.8
							c0.1,0,0.2,0,0.3,0c1,0,1.8,0.1,2.6,0.2c2.4,0.4,3.1,1.8,3.3,2.6c0.2,0.9,0,2.1-1.6,5.9c-1.1,2.6-2.5,5.4-4,8.4
							c-1.5,3-3.1,5.8-4.7,8.3c-1.9,3.1-3.3,4.5-4.7,4.9c-0.2,0.1-0.4,0.1-0.6,0.1c-1.5,0-2.5-1.2-2.9-3.5c-0.2-1.5-0.3-3.3-0.3-5.4
							c0.1-2.1,0.2-4.4,0.5-6.7c0.1-1.1,0.3-2.1,0.4-3c-1.8,0.9-3.8,2.3-5.8,4c-3.4,2.9-6.7,6.5-9.9,10.6c-3.3,4.2-6.4,9-9.2,14.3
							c-2.1,3.8-4,7.7-5.7,11.7c5.3-2.2,10.5-4,15.4-5.5c1.3-0.4,2.5-0.7,3.6-1.1c0.9-0.3,1.7-0.5,2.5-0.6l0.8-0.2
							c3-0.8,6.2-1.1,9.5-1.2l0.3,0c3.6,0,6.9,0.4,9.9,1.2c3.2,0.9,5.8,2.3,7.5,4.1c1.2,1.3,2.9,4.1,0,8.6c-0.2,0.3-0.8,1.3-2.1,4.7
							c-1.1,2.6-2.2,5.8-3.4,9.4c-1.2,3.7-2.4,7.7-3.5,11.9c-1.1,4.2-2.1,8.4-2.8,12.6c-0.7,4-1.2,7.7-1.5,11.2
							c-0.2,3.2,0,5.8,0.5,7.6c0.2,0.5,0.4,1,0.8,1.6c0.5,0.8,1,1.6,1.3,2.4c0.6,1.5,0.4,2.6,0.1,3.3c-0.6,1.5-2.2,2.1-3.3,2.4
							C92.6,228.3,91.5,228.4,90.4,228.4z M51.2,178.2c-0.6,3.5-0.9,6.8-0.8,9.8c0,3.2,0.5,6.1,1.4,8.6c1.2,3.4,2.3,4,2.6,4.1
							c0.9,0.3,1.4,0.4,1.8,0.4c0.2,0,0.3,0,0.4,0c0.4-0.1,1.2-0.6,2.7-2.1c1.2-1.3,2.6-3,4.1-5c1.4-2,3-4.2,4.5-6.6
							c1.5-2.4,3-4.7,4.4-7c1.4-2.4,2.6-4.4,3.7-6.3c1.1-1.9,1.9-3.4,2.5-4.6c0.1-0.1,0.1-0.2,0.2-0.4c-1,0.3-2,0.5-3,0.8
							c-2.6,0.7-5.2,1.5-7.8,2.3c-2.9,0.9-5.8,1.9-8.7,3C56.3,176.1,53.8,177.1,51.2,178.2z"/>
					</g>
					<g>
						<path d="M77.7,100.2c0.4,0,0.7,0,1.1,0c2.7,0.1,5.3,0.4,7.8,0.8c2.5,0.4,4.8,1,6.9,1.6c2.1,0.6,3.6,1.2,4.5,1.8
							c0.8,0.4,1.3,0.8,1.5,1.1c0.4,0,0.7,0,1.1,0c0.9,0,1.6,0.1,2.3,0.2c1,0.2,1.5,0.5,1.6,1.1c0.1,0.5-0.4,2-1.5,4.6
							c-1.1,2.6-2.4,5.3-3.9,8.3c-1.5,2.9-3,5.6-4.6,8.1c-1.5,2.5-2.7,3.8-3.6,4c0,0-0.1,0-0.1,0c-0.4,0-0.7-0.6-0.9-1.8
							c-0.2-1.3-0.3-3-0.2-5c0.1-2,0.2-4.2,0.5-6.5c0.3-2.3,0.6-4.5,0.9-6.4c-2.9,0.8-6.2,2.6-9.6,5.6c-3.4,3-6.9,6.6-10.2,10.9
							c-3.3,4.3-6.5,9.2-9.4,14.5c-2.9,5.4-5.5,10.8-7.6,16.4c7-3.1,13.6-5.5,19.6-7.3c1.3-0.4,2.5-0.7,3.6-1.1
							c1.1-0.3,2.3-0.6,3.2-0.8c2.4-0.6,5.4-1.1,9-1.1c0.1,0,0.2,0,0.3,0c3.4,0,6.6,0.4,9.4,1.2c2.9,0.8,5.1,2,6.6,3.6
							c1.5,1.6,1.4,3.6-0.2,6.1c-0.5,0.7-1.3,2.4-2.3,5c-1.1,2.6-2.2,5.8-3.4,9.5c-1.2,3.7-2.4,7.7-3.5,12.1
							c-1.1,4.3-2.1,8.6-2.9,12.7c-0.8,4.1-1.3,7.9-1.5,11.4c-0.2,3.5,0,6.2,0.6,8.3c0.2,0.7,0.6,1.4,1,2.1c0.5,0.7,0.9,1.4,1.1,2
							c0.3,0.7,0.3,1.2,0.1,1.7c-0.2,0.5-0.9,0.9-2,1.3c-0.9,0.3-1.8,0.4-2.8,0.4c-1.4,0-2.7-0.3-4.2-0.8c-2.4-1-4.2-2.9-5.1-6
							c-0.5-1.6-0.8-4-0.8-7.2c0-3.2,0.1-6.9,0.5-10.9c0.4-4.1,0.9-8.3,1.5-12.8c0.7-4.5,1.4-8.8,2.3-12.9
							c-1.2,3.8-2.4,7.6-3.8,11.6c-1.4,4-2.9,7.6-4.6,11c-1.7,3.4-3.5,6.3-5.5,8.7c-2,2.5-4.2,4.1-6.7,5c-4.1,1.4-7.8,2.1-11.3,2.1
							c-0.1,0-0.3,0-0.4,0c-3.6-0.1-6.8-0.7-9.7-2c-2.9-1.3-5.5-3.1-7.7-5.6c-2.2-2.5-3.9-5.4-5.2-8.8c-1.2-3.2-2-6.5-2.2-9.7
							c-4.8,3.1-8.6,6.1-11.4,9.1c-2.8,2.9-4,5.5-3.7,7.8c0.2,1.2,1,2.1,2.4,2.7c1.4,0.6,2.9,1.1,4.4,1.3c1.5,0.3,2.9,0.5,4,0.6
							c1.1,0.1,1.6,0.2,1.2,0.3c-3.2,0.6-5.9,0.9-8.2,0.9c-0.5,0-0.9,0-1.3,0c-2.5-0.1-4.6-0.6-6.1-1.3c-1.5-0.7-2.7-1.7-3.4-2.9
							c-0.7-1.2-1.2-2.5-1.4-4c-0.4-2,0-4.2,1.1-6.6c1.1-2.4,2.7-4.8,4.8-7.3c2.1-2.5,4.7-5,7.7-7.6c3-2.5,6.3-5,9.9-7.4
							c0.7-5.2,1.9-10.5,3.7-16c1.8-5.5,3.9-10.8,6.4-16c2.5-5.2,5.2-10.1,8.2-14.8c3-4.7,6.1-8.9,9.2-12.5c3.1-3.6,6.1-6.6,8.9-9
							c2.9-2.3,5.4-3.8,7.6-4.4C73.5,100.5,75.5,100.2,77.7,100.2 M82.2,166.2c-2.3,0.5-4.8,1.1-7.4,1.8c-2.6,0.7-5.2,1.5-7.8,2.3
							c-2.9,0.9-5.8,1.9-8.8,3c-2.9,1.1-5.9,2.2-8.8,3.4c-0.7,4.1-1.1,7.9-1,11.3c0.1,3.5,0.6,6.5,1.5,9.2c1.1,3,2.3,4.8,3.8,5.3
							c0.9,0.3,1.7,0.5,2.4,0.5c0.4,0,0.7-0.1,1-0.2c1-0.3,2.2-1.2,3.5-2.7c1.3-1.4,2.7-3.2,4.2-5.2c1.5-2,3-4.3,4.6-6.7
							c1.6-2.4,3-4.7,4.4-7c1.4-2.3,2.6-4.4,3.7-6.4c1.1-2,1.9-3.5,2.5-4.7C80.7,168.8,81.4,167.4,82.2,166.2 M77.7,96.2
							c-2.6,0-5,0.3-7.2,0.9c-2.8,0.8-5.8,2.5-9.1,5.2c-3.1,2.5-6.2,5.7-9.4,9.5c-3.2,3.8-6.4,8.2-9.5,12.9
							c-3.1,4.8-5.9,9.9-8.5,15.2c-2.5,5.3-4.8,10.8-6.6,16.4c-1.6,5-2.8,10-3.6,14.9c-3.1,2.2-6.1,4.4-8.8,6.7
							c-3.2,2.6-5.9,5.3-8.2,8c-2.4,2.8-4.2,5.5-5.4,8.2c-1.4,3.1-1.9,6.1-1.4,8.9c0.3,1.9,0.9,3.7,1.9,5.4c1.1,1.9,2.8,3.4,5.1,4.5
							c2,1,4.5,1.5,7.6,1.7c0.5,0,1,0,1.5,0c2.5,0,5.4-0.3,8.9-0.9l0.4-0.1l0.4-0.1c1.8-0.7,2.9-2.5,2.6-4.4c-0.5-3.3-3.8-3.5-5-3.6
							c-1-0.1-2.2-0.2-3.6-0.5c-1.2-0.2-2.5-0.6-3.6-1.1c0,0,0,0,0,0c0.1-0.6,0.6-1.9,2.6-4c1.5-1.6,3.4-3.3,5.6-4.9
							c0.4,1.4,0.8,2.8,1.4,4.3c1.4,3.8,3.5,7.2,6,10c2.6,2.9,5.6,5.1,9.1,6.6c3.4,1.4,7.2,2.2,11.2,2.3c0.2,0,0.3,0,0.5,0
							c3.8,0,8.1-0.8,12.5-2.3c3.2-1.1,6.1-3.2,8.5-6.2c0.9-1.1,1.8-2.3,2.6-3.6c-0.1,2.3-0.2,4.4-0.2,6.4c0,3.6,0.3,6.4,1,8.4
							c1.7,5.3,5,7.5,7.5,8.5c1.9,0.7,3.8,1.1,5.6,1.1c1.3,0,2.7-0.2,3.9-0.6c0.9-0.3,3.5-1.1,4.6-3.6c0.4-1.1,0.8-2.7-0.2-4.8
							c-0.4-0.9-0.9-1.8-1.5-2.7c-0.2-0.3-0.4-0.7-0.5-1c-0.3-1.1-0.7-3.1-0.4-6.9c0.2-3.4,0.7-7.1,1.4-11c0.8-4.1,1.7-8.3,2.8-12.4
							c1.1-4.2,2.3-8.2,3.5-11.8c1.1-3.5,2.3-6.6,3.3-9.2c1.4-3.4,1.9-4.3,2-4.4c3.8-5.8,1.1-9.7-0.3-11.1c-2-2.1-4.9-3.7-8.5-4.6
							c-3.2-0.9-6.7-1.3-10.5-1.3l-0.3,0c-3.4,0-6.7,0.4-9.9,1.2c-0.3,0.1-0.5,0.1-0.8,0.2c-0.8,0.2-1.6,0.4-2.6,0.7
							c-1.1,0.3-2.3,0.7-3.6,1.1c-3.5,1.1-7.2,2.3-10.9,3.7c1.1-2.4,2.3-4.7,3.6-7.1c2.8-5.1,5.9-9.8,9.1-14c3.1-4,6.4-7.5,9.6-10.3
							c0.7-0.6,1.3-1.1,2-1.6c-0.2,2-0.4,4-0.4,5.8c-0.1,2.3,0,4.2,0.3,5.8c0.7,4.7,3.6,5.2,4.8,5.2c0.4,0,0.8-0.1,1.2-0.2
							c2-0.5,3.6-2.1,5.9-5.7c1.6-2.5,3.2-5.4,4.7-8.4c1.6-3,2.9-5.9,4-8.5c1.7-4,2.1-5.6,1.7-7.1c-0.3-1-1.2-3.5-4.9-4.1
							c-0.8-0.1-1.7-0.2-2.6-0.2c-0.3-0.2-0.6-0.4-1-0.6c-1.2-0.7-2.9-1.4-5.2-2.1c-2.2-0.7-4.7-1.3-7.4-1.7
							c-2.7-0.4-5.5-0.7-8.3-0.8C78.6,96.2,78.2,96.2,77.7,96.2L77.7,96.2z M53,179.6c2.2-0.9,4.4-1.7,6.6-2.6
							c2.9-1.1,5.7-2.1,8.6-3c2.1-0.7,4.2-1.3,6.3-1.9c-0.2,0.3-0.3,0.6-0.5,0.9c-1,1.8-2.2,3.9-3.6,6.2c-1.3,2.2-2.8,4.5-4.3,6.9
							c-1.5,2.4-3,4.5-4.4,6.5c-1.4,1.9-2.7,3.6-3.9,4.9c-0.9,1-1.4,1.4-1.7,1.5c-0.1,0-0.4-0.1-0.8-0.2c-0.2-0.2-0.8-0.9-1.5-2.9
							c-0.8-2.3-1.2-5-1.3-8C52.3,185.4,52.5,182.6,53,179.6L53,179.6z"/>
					</g>
				</g>
				<g>
					<g>
						<path fill="#FFFFFF" d="M123.5,188c-0.3,0-0.5,0-0.8,0c-2-0.1-3.9-0.4-5.8-0.9c-1.9-0.5-3.7-1.3-5.2-2.3
							c-1.8-1.2-3-2.7-3.6-4.5c-1-2.6-1.3-6-1.1-10.1c0.3-4,1-8.3,2-12.8c1.1-4.5,2.5-9.1,4.2-13.6c1.7-4.5,3.6-8.7,5.5-12.5
							c1.9-3.8,4-7,6-9.7c2.2-2.9,4.2-4.6,6.1-5.1c2.2-0.6,4.7-0.9,7.3-0.9l0.4,0c2.4,0,4.7,0.2,6.9,0.5c2.3,0.3,4.5,0.8,6.5,1.4
							c1.2,0.3,2.2,0.7,3.1,1.1c1.2-2,2.4-3.6,3.5-5c2-2.5,2.9-3.2,3.9-3.3c0.6-0.1,1.3-0.2,2.1-0.2c0.8,0,1.6,0.1,2.5,0.2
							c1.6,0.2,3.2,0.6,4.7,1.1c1.4,0.5,2.8,1,4,1.5c1.2,0.5,2,0.9,2.6,1.2l0.1,0.1l0.1,0.1c1.4,1,2.1,1.9,2.5,2.8
							c0.6,1.8-0.7,3.5-1.2,4c-0.2,0.2-0.9,1.1-2.7,4.1c-1.4,2.4-3,5.3-4.7,8.4c-1.8,3.3-3.6,6.9-5.4,10.7
							c-1.8,3.7-3.5,7.4-5.1,11.1c-0.3,0.6-0.5,1.2-0.7,1.7c0.8-1.3,1.7-2.8,2.6-4.4l0.5-0.9c2.1-3.5,4.3-7.2,6.6-11.1
							c2.5-4.2,4.9-8.1,7.1-11.7c2.2-3.6,4.1-6.7,5.8-9.4c1.6-2.5,2.8-4.3,3.4-5.2l1-1.3c0.6-0.7,1.3-1.5,2-2.3
							c0.8-0.8,1.4-1.4,2-1.9c0.6-0.5,1.2-0.7,1.8-0.7c1,0,2.1,0.7,2.3,2.2c0.1,0.7,0,1.2-2.1,6.1c-1.2,2.8-2.9,6.3-5.2,11.1
							c-2.2,4.7-4.5,9.4-6.6,14.1l-1,2.1c-2,4.3-3.9,8.4-5.7,12.3c-2.1,4.5-3.9,8.5-5.5,11.9c-1.7,3.7-2.8,5.7-3.5,6.7
							c-1.2,1.6-3,3-5.4,4.3c-2.2,1.2-4.4,2-6.5,2.4c-0.9,0.2-1.8,0.3-2.7,0.3c-1.3,0-2.6-0.2-3.9-0.7c-1.9-0.7-3.6-1.7-5-2.9
							c-1.4-1.2-2.6-2.6-3.6-4c0,0,0,0,0-0.1c-1.5,2.8-3,5.2-4.5,7.3c-2.3,3.3-4.6,5.3-6.9,6.1C126.8,187.8,125.2,188,123.5,188z
							 M148.4,126.6c-0.3,0-0.5,0-0.8,0.1c0,0-0.8,0.3-2.8,2.5c-1.6,1.7-3.2,4-5,6.7c-1.8,2.8-3.6,6-5.3,9.4
							c-1.7,3.5-3.2,7.1-4.4,10.9c-1.1,3.7-2,7.5-2.5,11.1c-0.2,1.8-0.3,3.6-0.3,5.3c0.3-0.4,0.6-0.9,0.9-1.4
							c1.5-2.5,3.1-5.4,4.9-8.8c1.7-3.3,3.5-6.9,5.4-10.7c1.8-3.8,3.6-7.4,5.3-10.8c1.1-2.8,2.4-5.6,3.7-8.3
							c0.9-1.9,1.8-3.8,2.8-5.6c-0.3-0.1-0.5-0.2-0.8-0.3C149.1,126.7,148.8,126.6,148.4,126.6z"/>
					</g>
					<g>
						<path d="M194.1,110.3c0.2,0,0.3,0.1,0.3,0.4c0,0.3-0.6,2-1.9,5c-1.3,3-3,6.7-5.1,11c-2.1,4.3-4.3,9.1-6.7,14.1
							c-2.3,5.1-4.6,9.9-6.7,14.4c-2.1,4.5-3.9,8.5-5.5,11.8c-1.6,3.4-2.7,5.5-3.3,6.4c-1,1.4-2.6,2.6-4.7,3.7
							c-2.1,1.1-4.1,1.8-6,2.2c-0.8,0.2-1.6,0.2-2.3,0.2c-1.1,0-2.2-0.2-3.2-0.5c-1.7-0.6-3.1-1.5-4.4-2.6c-1.3-1.1-2.4-2.3-3.2-3.6
							c-0.9-1.3-1.4-2.5-1.6-3.5c-2,4.1-4.1,7.7-6.2,10.6c-2.1,2.9-4,4.7-5.9,5.3c-1.2,0.4-2.6,0.6-4.2,0.6c-0.2,0-0.5,0-0.8,0
							c-1.8-0.1-3.6-0.3-5.3-0.8c-1.7-0.5-3.3-1.2-4.7-2.1c-1.4-0.9-2.3-2-2.8-3.4c-0.9-2.4-1.2-5.5-1-9.3c0.3-3.9,0.9-8,2-12.4
							c1.1-4.4,2.5-8.9,4.2-13.4c1.7-4.5,3.5-8.6,5.4-12.3c1.9-3.7,3.9-6.9,5.8-9.4c1.9-2.5,3.6-4,5-4.4c2.1-0.6,4.4-0.8,6.8-0.8
							c0.1,0,0.2,0,0.4,0c2.3,0,4.5,0.2,6.6,0.5c2.3,0.3,4.3,0.8,6.2,1.3c1.9,0.5,3.4,1.1,4.5,1.7c1.6-2.6,3-4.7,4.3-6.3
							c1.3-1.6,2.1-2.5,2.6-2.6c0.5-0.1,1.1-0.1,1.7-0.1c0.7,0,1.4,0.1,2.2,0.2c1.5,0.2,2.9,0.6,4.3,1c1.4,0.5,2.6,0.9,3.8,1.4
							c1.1,0.5,2,0.9,2.5,1.1c1,0.7,1.6,1.3,1.7,1.8c0.2,0.5-0.1,1.2-0.8,2.1c-0.5,0.6-1.4,2.1-2.8,4.4c-1.4,2.4-3,5.2-4.8,8.5
							c-1.8,3.3-3.6,6.9-5.5,10.7c-1.9,3.8-3.6,7.5-5.1,11.1c-1.6,3.6-2.9,6.9-3.9,9.8c-1,2.9-1.6,5.1-1.8,6.6c0,0,0,0.1,0,0.1
							c0,0,0-0.1,0-0.1c0,0,0,0,0.1-0.1c1.2-1.3,2.7-3.6,4.7-6.7c1.9-3.1,4-6.6,6.3-10.4c2.3-3.8,4.7-7.8,7.2-12
							c2.5-4.2,4.9-8.1,7.1-11.7c2.2-3.6,4.1-6.7,5.8-9.3c1.6-2.6,2.7-4.3,3.3-5.1c0.1-0.1,0.4-0.5,1-1.2c0.6-0.7,1.2-1.4,1.9-2.2
							c0.7-0.7,1.3-1.3,1.8-1.7C193.7,110.4,193.9,110.3,194.1,110.3 M126.1,177.5c1.1-1,2.5-2.7,4-5.3c1.5-2.6,3.2-5.5,4.9-8.9
							c1.8-3.4,3.6-6.9,5.4-10.7c1.8-3.8,3.6-7.4,5.3-10.8c1.1-2.8,2.4-5.6,3.6-8.3c1.3-2.7,2.6-5.3,3.9-7.7c-1-0.2-2-0.5-3.1-0.9
							c-0.6-0.2-1.2-0.3-1.7-0.3c-0.4,0-0.9,0.1-1.3,0.2c-0.8,0.2-2.1,1.3-3.7,3c-1.6,1.8-3.4,4.1-5.2,6.9c-1.8,2.8-3.6,6-5.4,9.6
							c-1.8,3.6-3.3,7.3-4.5,11.2c-1.2,3.9-2,7.7-2.5,11.5C125.3,170.8,125.4,174.3,126.1,177.5 M194.1,106.3L194.1,106.3
							c-1.1,0-2.1,0.4-3,1.1c-0.7,0.5-1.4,1.2-2.3,2.1c-0.7,0.8-1.4,1.6-2.1,2.4l-0.2,0.2c-0.4,0.5-0.6,0.8-0.7,0.9l-0.1,0.1
							l-0.1,0.1c-0.6,0.8-1.6,2.3-2.5,3.8c0-0.2-0.1-0.4-0.2-0.6c-0.5-1.4-1.5-2.6-3.2-3.8l-0.3-0.2l-0.3-0.1
							c-0.6-0.3-1.5-0.7-2.7-1.2c-1.3-0.6-2.7-1.1-4.1-1.6c-1.6-0.5-3.3-0.9-5-1.2c-1-0.1-1.9-0.2-2.8-0.2c-0.8,0-1.6,0.1-2.4,0.2
							c-1.9,0.3-3.3,1.7-5.1,4.1c-0.9,1.1-1.8,2.4-2.7,3.8c-0.6-0.2-1.1-0.4-1.8-0.5c-2.1-0.6-4.4-1.1-6.8-1.4
							c-2.3-0.3-4.8-0.5-7.2-0.5l-0.4,0c-2.8,0-5.4,0.3-7.8,1c-2.3,0.6-4.6,2.5-7.2,5.8c-2.1,2.7-4.2,6.1-6.2,10
							c-2,3.9-3.9,8.2-5.6,12.7c-1.7,4.6-3.2,9.2-4.3,13.9c-1.1,4.6-1.8,9-2.1,13.1c-0.3,4.3,0.1,8,1.2,11c0.7,2.2,2.2,4,4.3,5.4
							c1.7,1.1,3.7,2,5.8,2.6c2,0.6,4.1,0.9,6.3,1c0.3,0,0.6,0,0.9,0c1.9,0,3.7-0.2,5.3-0.7l0.1,0l0.1,0c2.7-0.9,5.3-3.1,7.9-6.8
							c1-1.5,2.1-3.1,3.1-4.8c0.6,0.7,1.3,1.4,2.1,2c1.6,1.4,3.5,2.5,5.7,3.3c1.4,0.5,3,0.8,4.5,0.8c1,0,2-0.1,3.1-0.3
							c2.3-0.5,4.6-1.3,7.1-2.6c2.7-1.4,4.7-3,6-4.9c0.8-1.1,1.9-3.1,3.7-7c1.6-3.4,3.5-7.5,5.5-11.9c1.8-3.9,3.7-7.9,5.6-12.2
							l1-2.2c2.2-4.7,4.4-9.4,6.6-14.1c2.3-4.8,4-8.3,5.2-11.2c2.1-4.7,2.4-5.8,2.2-7.2C198.1,107.9,196.3,106.3,194.1,106.3
							L194.1,106.3z M130.5,163.4c0.4-2.2,1-4.5,1.7-6.7c1.1-3.6,2.6-7.2,4.2-10.6c1.7-3.4,3.5-6.5,5.2-9.2c1.6-2.6,3.2-4.7,4.7-6.3
							c-0.2,0.4-0.4,0.8-0.6,1.2c-1.3,2.8-2.5,5.6-3.7,8.4c-1.9,3.8-3.6,7.4-5.2,10.7c-1.8,3.8-3.6,7.3-5.3,10.6
							C131.1,162.1,130.8,162.8,130.5,163.4L130.5,163.4z"/>
					</g>
				</g>
				<g>
					<g>
						<path fill="#FFFFFF" d="M184.3,176.7c-0.7,0-1.6-0.1-2.8-0.3c-1.5-0.3-3.1-0.7-4.7-1.2c-1.7-0.6-3.2-1.4-4.5-2.4
							c-1.6-1.2-2.6-2.7-2.9-4.4c-0.4-2-0.1-4.9,0.7-8.9c0.8-3.8,1.8-8,3.2-12.5c1.4-4.6,3-9.4,4.9-14.1c1.8-4.7,3.8-9.2,5.7-13.2
							c1.9-4,3.7-7.3,5.3-10c2.1-3.3,3.5-4.7,5-4.9c0.5-0.1,1-0.1,1.5-0.1c0.9,0,2,0.1,3.1,0.3c1.6,0.3,3.1,0.7,4.7,1.2
							c1.6,0.5,3,1.1,4.2,1.7c1.2,0.6,2.1,1.1,2.8,1.5l0.1,0l0.1,0.1c1.4,1,2.3,1.9,3,2.8c0.4,0.6,1.5,2.6-0.8,5
							c-0.1,0.1-0.5,0.6-1.6,2.5c-1,1.6-2.1,3.6-3.4,6c-1.3,2.4-2.8,5.2-4.4,8.2c-1,1.9-2,3.8-3,5.8c0.8-1.1,1.6-2.2,2.4-3.3
							c3.1-4.1,6.3-8.3,9.5-12.3c3.2-4,6.3-7.7,9.3-11.1c2.8-3.2,5.5-6,7.7-8.2c3.3-3.2,4.7-3.7,5.7-3.8c0.3,0,0.6,0,0.9,0
							c1,0,2.2,0.1,3.5,0.4c1.5,0.3,3.1,0.8,4.6,1.3c1.5,0.5,3,1.1,4.2,1.7c1.3,0.6,2.3,1.2,2.9,1.7c0.5,0.4,1.1,0.8,1.6,1.3
							c0.7,0.6,1.2,1.2,1.6,2c0.5,1,0.6,2,0.3,3.1c-0.3,0.9-0.9,1.8-2,2.9c-0.1,0.1-0.5,0.5-2,2.7c-1.2,1.7-2.5,3.7-3.9,5.9
							c-1.5,2.4-3.1,5-4.7,7.7c-0.7,1.3-1.5,2.5-2.2,3.8c1.2-1.5,2.5-3,3.7-4.4c3.2-3.8,6.5-7.6,9.9-11.3c3.2-3.6,6.4-7,9.4-10.1
							c2.8-2.9,5.4-5.4,7.7-7.3c3.3-2.8,4.7-3.2,5.6-3.3l0.3,0c1.2,0,2.6,0.2,4.1,0.6c1.6,0.4,3.1,0.9,4.6,1.5
							c1.5,0.6,2.8,1.2,4,1.9c1.3,0.7,2.2,1.3,2.8,1.8l1.5,1.3c0.8,0.7,1.3,1.4,1.6,2.2c0.4,0.9,0.4,2,0,2.9c-0.3,0.9-1,1.8-2.1,2.8
							c0,0-0.5,0.5-2.4,3.3c-1.5,2.1-3.1,4.6-4.9,7.5c-1.9,3-3.9,6.2-5.8,9.5c-2,3.3-3.8,6.6-5.5,9.8c-0.4,0.7-0.7,1.4-1.1,2.1
							c1.7-2,3.5-4.2,5.5-6.5l0.2-0.2c2.9-3.4,5.8-6.9,8.7-10.4c3-3.6,5.8-6.9,8.4-10c2.3-2.7,4.6-5.4,6.8-8
							c1.5-1.7,2.5-2.9,3.2-3.7l0.6-0.7l0.1-0.1c0.1-0.1,0.5-0.4,1.1-1c0.7-0.6,1.4-1.3,2.2-1.9c0.9-0.7,1.6-1.3,2.4-1.7
							c0.5-0.3,1-0.4,1.5-0.4c0.6,0,1.2,0.2,1.7,0.7c0.3,0.3,0.7,0.9,0.7,1.8c0,0.7-0.2,1.2-3.1,5.7c-1.7,2.7-3.9,5.9-6.8,10.2
							l-2.9,4.2c-1.9,2.8-3.8,5.7-5.9,8.7c-3.1,4.7-6.1,9.1-8.8,13.3l-0.3,0.4c-2.6,4-5,7.5-7,10.4c-2.3,3.4-3.6,5.2-4.5,6.1
							c-1,1-1.9,1.7-2.7,2.3c-0.9,0.6-1.9,1.1-2.9,1.4c-1,0.3-2.2,0.5-3.4,0.6c-1.1,0.1-2.3,0.2-3.8,0.2c-0.5,0-1,0-1.5,0
							c-1.4,0-2.9-0.1-4.4-0.3c-2.1-0.2-4-0.7-5.8-1.2c-1.9-0.6-3.6-1.5-4.9-2.6c-1.6-1.3-2.4-2.9-2.6-4.8c-0.1-1.4,0.3-3.4,1.3-6.2
							c0.9-2.6,2-5.5,3.4-8.6c0.6-1.3,1.1-2.6,1.7-3.8c-1.2,1.4-2.4,2.9-3.7,4.3c-2.6,3.1-5.2,6.1-7.7,9.2c-2.7,3.2-4.9,5.9-7,8.2
							c-2.2,2.5-4,4.5-5.5,5.9c-2,2-3.2,2.8-4.4,2.9c-0.2,0-0.5,0-0.8,0c-0.7,0-1.6-0.1-2.8-0.2c-1.6-0.2-3.2-0.5-4.9-1
							c-1.7-0.5-3.3-1.3-4.7-2.3c-1.7-1.2-2.7-2.8-2.9-4.7c-0.2-1.4,0.1-3.4,0.9-6.2c0.7-2.6,1.7-5.6,2.9-8.8
							c0.5-1.4,1.1-2.8,1.6-4.2c-1.3,1.7-2.6,3.4-3.8,5c-2.5,3.3-5,6.6-7.4,9.8c-2.8,3.7-4.9,6.4-6.7,8.7c-2.1,2.7-3.8,4.8-5.3,6.4
							c-1.9,2.1-3.1,3-4.3,3.2C184.9,176.7,184.6,176.7,184.3,176.7z"/>
					</g>
					<g>
						<path d="M276.5,100.9c1,0,2.2,0.2,3.6,0.5c1.5,0.4,3,0.9,4.4,1.4c1.4,0.6,2.7,1.2,3.8,1.8c1.2,0.6,2,1.1,2.5,1.6
							c0.5,0.4,1,0.9,1.5,1.3c0.5,0.5,0.9,0.9,1.1,1.4c0.2,0.5,0.2,1,0,1.6c-0.2,0.5-0.7,1.2-1.6,2c-0.4,0.3-1.3,1.5-2.7,3.6
							c-1.4,2.1-3.1,4.6-5,7.5c-1.9,2.9-3.8,6.1-5.9,9.6c-2,3.5-3.9,6.8-5.6,9.9c-1.7,3.1-3.1,5.9-4.2,8.4c-1.1,2.4-1.7,4.1-1.8,5.1
							c1.6-1.5,3.5-3.7,5.9-6.5c2.4-2.8,5-5.9,7.9-9.3c2.9-3.4,5.8-6.9,8.7-10.4c3-3.6,5.8-6.9,8.4-10c2.6-3.1,4.8-5.7,6.8-7.9
							c1.9-2.2,3.2-3.7,3.8-4.3c0.1-0.1,0.5-0.4,1.2-1.1c0.7-0.6,1.4-1.2,2.1-1.9c0.7-0.6,1.4-1.1,2-1.4c0.2-0.1,0.4-0.2,0.6-0.2
							c0.2,0,0.3,0.2,0.3,0.5c0,0.3-0.9,1.9-2.7,4.7c-1.8,2.8-4.1,6.2-6.8,10.1c-2.7,4-5.6,8.3-8.7,13c-3.1,4.7-6.1,9.1-8.8,13.3
							c-2.8,4.2-5.2,7.8-7.3,10.9c-2.1,3.1-3.5,5-4.3,5.8c-0.9,0.9-1.7,1.5-2.4,2c-0.7,0.5-1.5,0.9-2.4,1.2
							c-0.9,0.3-1.8,0.5-2.9,0.6c-1.1,0.1-2.3,0.2-3.7,0.2c-0.5,0-0.9,0-1.4,0c-1.4,0-2.8-0.1-4.2-0.3c-2-0.2-3.8-0.6-5.5-1.1
							c-1.7-0.5-3.1-1.3-4.2-2.2c-1.1-0.9-1.7-2.1-1.8-3.4c-0.1-1.1,0.3-2.9,1.2-5.4c0.9-2.5,2-5.3,3.3-8.4c1.4-3.1,2.8-6.3,4.5-9.6
							s3.2-6.2,4.6-8.8c-2,2.2-4.2,4.8-6.7,7.7c-2.5,2.9-5.1,5.9-7.7,9c-2.6,3.1-5.2,6.2-7.7,9.2c-2.5,3-4.8,5.7-7,8.1
							c-2.1,2.4-3.9,4.3-5.4,5.8c-1.5,1.5-2.6,2.3-3.2,2.3c-0.2,0-0.3,0-0.6,0c-0.6,0-1.5-0.1-2.6-0.2c-1.5-0.2-3-0.5-4.5-1
							c-1.5-0.5-2.9-1.1-4.1-2c-1.2-0.9-1.9-2-2.1-3.3c-0.1-1.1,0.1-2.9,0.8-5.4c0.7-2.5,1.6-5.4,2.8-8.6c1.2-3.2,2.5-6.4,3.9-9.8
							c1.4-3.3,2.8-6.3,4.1-9c-1.8,2.4-3.9,5.1-6.3,8.2c-2.4,3.1-4.9,6.2-7.4,9.6c-2.5,3.3-5,6.6-7.4,9.8c-2.4,3.2-4.7,6.1-6.7,8.7
							c-2,2.6-3.8,4.7-5.2,6.3c-1.5,1.6-2.5,2.5-3.1,2.6c-0.2,0-0.4,0-0.6,0c-0.6,0-1.4-0.1-2.4-0.3c-1.4-0.2-2.9-0.6-4.4-1.1
							c-1.5-0.5-2.8-1.2-4-2.1c-1.2-0.9-1.9-1.9-2.1-3.2c-0.3-1.7-0.1-4.4,0.7-8.1c0.7-3.7,1.8-7.8,3.1-12.3c1.4-4.5,3-9.2,4.8-13.9
							c1.9-4.8,3.7-9.1,5.6-13.1c1.9-4,3.6-7.2,5.2-9.8c1.6-2.6,2.8-3.9,3.5-4c0.4-0.1,0.8-0.1,1.3-0.1c0.8,0,1.7,0.1,2.7,0.3
							c1.5,0.3,3,0.6,4.4,1.1c1.5,0.5,2.8,1,3.9,1.6c1.2,0.6,2.1,1.1,2.7,1.4c1.1,0.8,2,1.6,2.5,2.3c0.5,0.7,0.3,1.6-0.7,2.5
							c-0.3,0.3-0.9,1.2-1.8,2.8c-1,1.6-2.1,3.6-3.4,6.1c-1.3,2.4-2.8,5.2-4.4,8.2c-1.6,3-3.1,6-4.6,9.1c-1.5,3.1-2.9,6.1-4.1,8.9
							c-1.3,2.9-2.3,5.3-3.1,7.4c1.6-2.4,3.6-5.4,6.2-9.1c2.6-3.7,5.4-7.6,8.4-11.7c3-4.1,6.2-8.2,9.5-12.3c3.3-4.1,6.4-7.8,9.3-11
							c2.9-3.3,5.4-6,7.6-8c2.2-2.1,3.7-3.2,4.4-3.2c0.2,0,0.5,0,0.7,0c0.9,0,1.9,0.1,3.1,0.4c1.5,0.3,2.9,0.7,4.4,1.2
							c1.5,0.5,2.8,1,4,1.6c1.2,0.6,2,1,2.5,1.4c0.5,0.4,1,0.8,1.5,1.2c0.5,0.4,0.9,0.9,1.2,1.4c0.3,0.5,0.3,1,0.2,1.6
							c-0.2,0.6-0.6,1.2-1.5,2c-0.4,0.4-1.1,1.4-2.2,3c-1.1,1.6-2.4,3.6-3.9,6c-1.5,2.3-3.1,4.9-4.7,7.7c-1.7,2.8-3.2,5.6-4.7,8.3
							c-1.5,2.7-2.8,5.2-4,7.6c-1.2,2.4-2,4.3-2.5,5.8c1.9-2.5,4.2-5.6,6.9-9.1c2.8-3.5,5.8-7.2,9-11c3.2-3.8,6.5-7.6,9.8-11.3
							c3.3-3.7,6.4-7.1,9.3-10c2.9-2.9,5.4-5.3,7.6-7.2c2.1-1.8,3.6-2.8,4.4-2.8C276.3,100.9,276.4,100.9,276.5,100.9 M276.5,96.9
							c-0.1,0-0.2,0-0.3,0c-1.9,0.1-3.8,1.1-6.9,3.7c-2.3,2-4.9,4.5-7.8,7.4c-1.6,1.7-3.3,3.5-5,5.3c0.1-0.1,0.1-0.3,0.1-0.4
							c0.4-1.6,0.3-3.2-0.5-4.6c-0.5-0.9-1.2-1.8-2.1-2.5c-0.6-0.5-1.1-0.9-1.7-1.4c-0.8-0.6-1.8-1.2-3.3-1.9
							c-1.3-0.6-2.8-1.2-4.4-1.7c-1.6-0.5-3.2-1-4.8-1.3c-1.4-0.3-2.7-0.5-3.9-0.5c-0.3,0-0.7,0-1,0c-1.9,0.1-3.8,1.3-6.9,4.3
							c-2.3,2.2-5,5-7.9,8.3c-1.7,1.9-3.4,3.9-5.1,6c1.7-2.4,1.2-4.8,0.1-6.4c-0.8-1.2-1.9-2.2-3.5-3.3l-0.1-0.1l-0.2-0.1
							c-0.7-0.4-1.7-0.9-2.9-1.5c-1.4-0.7-2.9-1.3-4.5-1.8c-1.6-0.5-3.3-0.9-4.9-1.2c-1.2-0.2-2.4-0.3-3.4-0.3c-0.6,0-1.2,0-1.8,0.1
							c-2.5,0.3-4.4,2.6-6.4,5.8c-1.7,2.7-3.5,6.2-5.4,10.2c-1.9,4.1-3.8,8.6-5.7,13.3c-1.9,4.8-3.5,9.6-4.9,14.2
							c-1.4,4.5-2.4,8.8-3.2,12.6c-0.9,4.2-1.1,7.3-0.7,9.6c0.4,2.3,1.7,4.2,3.7,5.7c1.5,1.1,3.2,2,5,2.6c1.7,0.6,3.4,1,5,1.3
							c1.3,0.2,2.3,0.3,3.1,0.3c0.4,0,0.8,0,1.2-0.1c1.7-0.3,3.2-1.3,5.5-3.9c1.5-1.7,3.2-3.8,5.4-6.5c1.8-2.3,3.9-5,6.7-8.7
							c1.2-1.5,2.3-3.1,3.5-4.6c-0.1,0.3-0.2,0.7-0.3,1c-0.9,3.1-1.2,5.3-1,7c0.3,2.5,1.6,4.6,3.7,6.1c1.6,1.1,3.3,2,5.3,2.6
							c1.7,0.5,3.5,0.9,5.2,1.1c1.3,0.2,2.3,0.2,3.1,0.2c0.4,0,0.7,0,1,0c1.7-0.2,3.2-1.2,5.6-3.5c1.5-1.5,3.3-3.5,5.6-6
							c2.1-2.3,4.4-5,7-8.2c1-1.2,2.1-2.5,3.1-3.7c-0.1,0.2-0.2,0.5-0.2,0.7c-1.1,3.1-1.5,5.3-1.4,7c0.2,2.4,1.3,4.6,3.3,6.2
							c1.5,1.3,3.4,2.2,5.6,2.9c1.9,0.6,4,1,6.2,1.3c1.6,0.2,3.2,0.3,4.7,0.3c0.5,0,1.1,0,1.6,0c1.5-0.1,2.8-0.1,3.9-0.2
							c1.4-0.1,2.7-0.4,3.8-0.7c1.2-0.4,2.4-0.9,3.4-1.6c1-0.6,2-1.5,3-2.6c1-1,2.3-2.8,4.8-6.4c2-2.9,4.3-6.4,6.9-10.3l0.4-0.6
							c3.4-5.2,6.1-9.2,8.8-13.3c2-3,4-5.9,5.8-8.7l2.9-4.3c2.9-4.3,5-7.5,6.8-10.2c2.9-4.4,3.4-5.4,3.4-6.8c0-1.3-0.4-2.4-1.2-3.3
							c-0.8-0.8-1.9-1.3-3.1-1.3c-0.8,0-1.6,0.2-2.4,0.6c-0.9,0.5-1.8,1.1-2.8,1.9c-0.8,0.7-1.5,1.3-2.2,2c-0.6,0.6-1,0.9-1.1,1
							l-0.2,0.2l-0.2,0.2l-0.6,0.7c-0.7,0.8-1.8,2-3.2,3.7c-2.2,2.6-4.5,5.2-6.8,8c-2.5,3-5.2,6.2-8.1,9.6c0.3-0.6,0.7-1.1,1-1.6
							c1.8-2.8,3.4-5.3,4.9-7.4c1.5-2.2,2.1-2.9,2.2-3c1.4-1.2,2.2-2.4,2.6-3.6c0.5-1.4,0.5-2.9-0.1-4.3c-0.4-1.1-1.2-2.1-2.2-3
							c-0.5-0.5-1-0.9-1.5-1.3c-0.7-0.6-1.7-1.3-3.2-2.1c-1.3-0.7-2.7-1.3-4.2-2c-1.6-0.6-3.2-1.2-4.9-1.6
							C279.4,97.1,277.9,96.9,276.5,96.9L276.5,96.9z"/>
					</g>
				</g>
				<g>
					<g>
						<path fill="#FFFFFF" d="M306.2,167.6c-3.2,0-6.3-0.6-9-1.5c-2.8-1-5.3-2.4-7.3-4.2c-2.1-1.8-3.8-3.9-5-6.4
							c-1.2-2.5-1.9-5.2-2-8.1c-0.1-4.2,0.6-8.4,2.1-12.4c1.5-4,3.4-7.8,5.7-11.4c2.3-3.6,4.9-7,7.8-10c2.8-3,5.6-5.6,8.3-7.8
							c2.7-2.2,5.2-3.9,7.3-5.2c3.1-1.8,4.4-2,5.2-2c1.1,0,2.2,0.2,3.5,0.7c1.2,0.4,2.5,0.9,3.8,1.4c1.3,0.6,2.6,1.2,3.9,1.8
							c1.2,0.6,2.3,1.3,3.3,1.9c0.7,0.3,1.4,0.8,2.4,1.5c1,0.7,2,1.6,2.9,2.5c0.9,0.9,1.7,1.9,2.4,2.8c0.9,1.3,1.3,2.4,1.3,3.5
							c-0.1,1.1-0.6,2.4-1.9,4.2c-1,1.5-2.4,3.2-4,5.1c-1.6,1.8-3.5,3.7-5.6,5.6c-2.1,1.9-4.2,3.7-6.3,5.3c-2.1,1.6-4.3,2.9-6.3,4
							c-2.2,1.1-4.2,1.7-6.1,1.7l-0.2,0c-1.7,0-3.1-0.2-4.3-0.4c-0.5-0.1-0.9-0.2-1.3-0.3c-1.3,2.2-2.4,4.4-3.2,6.5
							c-0.9,2.4-1.4,4.5-1.4,6.3c0,0.9,0.1,1.4,0.1,1.6c0.1,0.1,0.2,0.1,0.2,0.1c2.2,0,4.6-0.6,7.3-1.9c2.8-1.4,5.7-3.1,8.7-5.1
							c2.9-2.1,5.9-4.4,8.8-6.8c3.1-2.7,5.7-5,8.1-7.2c2.6-2.4,4.6-4.3,6.2-5.9c1.7-1.7,2.9-2.8,3.6-3.4l0.1-0.1
							c0.8-0.6,1.7-1.3,2.7-2.1c1-0.8,2-1.6,2.9-2.2c1.1-0.8,2-1.3,2.9-1.5c0.2-0.1,0.5-0.1,0.7-0.1c0.7,0,1.4,0.3,1.9,0.8
							c0.4,0.4,0.8,1.1,0.7,2.2c-0.1,0.9-0.6,2.1-2.9,5.5c-1.6,2.4-3.8,5.2-6.6,8.7c-2.6,3.2-5.6,6.7-9.1,10.6
							c-3.4,3.8-6.9,7.2-10.5,10.4c-3.6,3.2-7.3,5.8-10.9,7.9c-3.8,2.2-7.3,3.3-10.7,3.3L306.2,167.6z M326.9,118
							c-1.6,1-3.2,2.3-4.9,3.7c-2,1.7-3.9,3.6-5.8,5.7c-0.6,0.6-1.2,1.3-1.7,2c0.1-0.1,0.3-0.1,0.4-0.2c2.2-1.3,4.3-2.8,6.3-4.7
							c2-1.9,3.9-4,5.5-6.1C326.8,118.2,326.8,118.1,326.9,118z"/>
					</g>
					<g>
						<path d="M319.4,100.5C319.4,100.5,319.4,100.5,319.4,100.5c0.8,0,1.8,0.2,2.9,0.6c1.1,0.4,2.4,0.8,3.7,1.4
							c1.3,0.6,2.5,1.1,3.8,1.8c1.2,0.6,2.3,1.3,3.2,1.9c0.6,0.3,1.3,0.8,2.2,1.4c0.9,0.7,1.8,1.4,2.6,2.3c0.8,0.8,1.5,1.7,2.2,2.6
							c0.6,0.9,0.9,1.6,0.9,2.2c0,0.7-0.5,1.7-1.5,3.2c-1,1.5-2.3,3.1-3.9,4.9c-1.6,1.8-3.4,3.6-5.5,5.5c-2,1.9-4.1,3.6-6.1,5.1
							c-2,1.5-4,2.8-6,3.8c-1.9,1-3.6,1.5-5.2,1.5c0,0-0.1,0-0.1,0c-1.6,0-2.9-0.2-3.9-0.4c-1-0.2-1.9-0.5-2.6-0.9
							c-1.8,2.9-3.2,5.6-4.2,8.3c-1,2.7-1.5,5-1.5,7.1c0,1.7,0.3,2.7,0.8,3.1c0.5,0.4,1,0.6,1.5,0.6c0,0,0.1,0,0.1,0
							c2.5,0,5.2-0.7,8.1-2.1c3-1.4,5.9-3.2,8.9-5.3c3-2.1,6-4.4,8.9-7c2.9-2.5,5.7-4.9,8.2-7.2c2.5-2.3,4.6-4.2,6.3-5.9
							c1.7-1.7,2.8-2.7,3.4-3.2c0.9-0.6,1.8-1.3,2.8-2.2c1-0.8,1.9-1.5,2.8-2.2c0.8-0.6,1.6-1,2.1-1.1c0.1,0,0.2,0,0.3,0
							c0.4,0,0.6,0.3,0.5,0.8c0,0.6-0.9,2.1-2.6,4.5c-1.7,2.4-3.9,5.3-6.5,8.6c-2.7,3.3-5.7,6.8-9,10.5c-3.4,3.7-6.8,7.1-10.3,10.2
							c-3.5,3.1-7.1,5.7-10.6,7.7c-3.5,2-6.7,3-9.7,3c0,0-0.1,0-0.1,0c-3,0-5.8-0.5-8.4-1.4c-2.6-0.9-4.8-2.2-6.7-3.8
							c-1.9-1.6-3.4-3.5-4.5-5.8c-1.1-2.2-1.7-4.6-1.7-7.2c-0.1-4,0.6-7.9,2-11.7c1.4-3.9,3.3-7.5,5.5-11c2.3-3.5,4.8-6.7,7.5-9.7
							c2.8-2.9,5.5-5.5,8.1-7.6c2.7-2.2,5-3.8,7.1-5C317.2,101.1,318.6,100.5,319.4,100.5 M332.1,113.5c-1.6,0.4-3.4,1.1-5.4,2.3
							c-1.9,1.2-3.9,2.7-6,4.4c-2,1.8-4,3.7-6,5.9c-2,2.2-3.8,4.5-5.5,6.8c0.1,0,0.1,0,0.1,0c0,0,0.1,0,0.1,0c2,0,4.1-0.7,6.4-2
							c2.3-1.3,4.5-3,6.6-5c2.1-2,4-4.1,5.7-6.4C329.9,117.3,331.2,115.3,332.1,113.5 M319.4,96.5c-1.6,0-3.4,0.7-6.2,2.3
							c-2.3,1.3-4.8,3.1-7.6,5.4c-2.8,2.3-5.7,5-8.5,8c-2.9,3.1-5.6,6.5-8,10.2c-2.4,3.7-4.4,7.7-5.9,11.8
							c-1.6,4.3-2.3,8.7-2.3,13.2c0.1,3.2,0.8,6.2,2.2,9c1.3,2.7,3.2,5,5.5,7c2.2,1.9,4.9,3.5,8,4.5c3,1.1,6.2,1.6,9.7,1.7l0.2,0
							c3.7,0,7.6-1.2,11.6-3.5c3.7-2.1,7.5-4.9,11.2-8.1c3.6-3.2,7.2-6.7,10.7-10.5c3.5-3.9,6.5-7.4,9.2-10.7
							c2.9-3.5,5.1-6.4,6.7-8.8c2.7-3.8,3.2-5.2,3.3-6.5c0.1-1.8-0.6-3-1.2-3.7c-0.9-0.9-2-1.4-3.3-1.4c-0.4,0-0.7,0-1.1,0.1
							c-1.1,0.3-2.3,0.8-3.6,1.8c-0.9,0.7-1.9,1.4-3,2.3c-0.9,0.8-1.8,1.4-2.6,2l-0.1,0.1l-0.1,0.1c-0.8,0.6-2,1.7-3.8,3.5
							c-1.6,1.5-3.6,3.4-6.2,5.8c-2.3,2.1-5,4.5-8.1,7.1c-2.8,2.4-5.7,4.7-8.6,6.7c-2.8,2-5.7,3.7-8.4,5c-1.7,0.8-3.3,1.3-4.7,1.6
							c0.1-1.5,0.5-3.2,1.2-5.2c0.6-1.6,1.4-3.3,2.3-4.9c1.3,0.3,2.7,0.4,4.6,0.5l0.2,0c2.2,0,4.5-0.6,7-1.9
							c2.1-1.1,4.4-2.5,6.6-4.2c2.1-1.6,4.3-3.4,6.5-5.4c2.1-2,4.1-3.9,5.7-5.8c1.8-2,3.1-3.7,4.2-5.3c1.5-2.2,2.1-3.7,2.2-5.2
							c0.1-1.5-0.4-3.1-1.6-4.7c-0.7-1-1.6-2.1-2.6-3.1c-1-1-2-1.9-3.1-2.7c-1-0.7-1.8-1.3-2.6-1.7c-1-0.7-2.2-1.3-3.4-2
							c-1.3-0.7-2.7-1.3-4-1.9c-1.4-0.6-2.7-1.1-4-1.5c-1.5-0.5-2.8-0.7-4-0.8L319.4,96.5L319.4,96.5L319.4,96.5z"/>
					</g>
				</g>
			</g>
			<g>
				<g>
					<path fill="#FFFFFF" d="M121.7,224.6c-3.1,0-6-1.4-8-3.9c-1.7-2.1-2.4-4.8-2.1-7.5s1.7-5.1,3.8-6.7c0.1-0.1,0.3-0.2,0.5-0.4
						l0.5-0.3l2-1.2c1.7-1,3.8-2.2,6.7-3.5l0.7-0.3c0.5-0.2,1-0.5,1.5-0.7l3.6-1.5c1.4-0.6,2.8-1.2,4.3-1.7c0.6-0.2,1.3-0.5,1.9-0.7
						c1.3-0.5,2.7-1,4.2-1.5l6.9-2.1c1.6-0.5,3.3-1,5-1.4c0.8-0.2,1.6-0.4,2.5-0.6c0.8-0.2,1.5-0.4,2.2-0.6c1.9-0.5,3.8-1,5.9-1.4
						l8.4-1.8c1.4-0.3,2.9-0.6,4.4-0.8l10-1.7c1.2-0.2,2.5-0.4,3.7-0.6l14.1-1.8c1.1-0.1,2.1-0.2,3.2-0.3c0.6,0,1.1-0.1,1.7-0.2
						l14.4-1.3l4.9-0.3l9.5-0.5c5.1-0.4,10.2-0.4,15.1-0.5c1.2,0,7-0.1,7-0.1c3.3-0.1,6.4-0.1,9.6-0.1c1.5,0,2.9,0,4.3,0.1l15.5,0.2
						c2.6,0,4.8,0.1,7,0.2l25,1.1c1,0,2,0.5,2.7,1.2c0.7,0.8,1.1,1.7,1,2.8c-0.1,2-1.7,3.7-3.8,3.7l-25,0.5c-2.2,0-4.6,0.1-6.8,0.2
						l-15.4,0.8c-4.4,0.2-8.8,0.5-13.6,0.9c0,0-5.8,0.5-7,0.6c-4.8,0.4-9.7,0.8-14.7,1.4l-9.4,1.1l-4.7,0.6l-14,2.1
						c-0.5,0.1-1.1,0.2-1.7,0.3c-1,0.1-2,0.3-2.9,0.5l-13.6,2.6c-1.2,0.2-2.3,0.5-3.4,0.7l-9.5,2.2c-1.4,0.3-2.7,0.6-4,1l-8,2.2
						c-1.8,0.5-3.5,1-5.2,1.6c-0.7,0.2-1.4,0.5-2.1,0.7c-0.8,0.3-1.6,0.5-2.4,0.8c-1.5,0.5-3,1-4.3,1.5l-6.2,2.4
						c-1.2,0.5-2.3,1-3.4,1.5c-0.7,0.3-1.3,0.6-1.9,0.8c-1.3,0.5-2.4,1.1-3.5,1.6c-0.4,0.2-3.1,1.5-3.1,1.5c-0.3,0.2-0.7,0.4-1,0.6
						c-0.2,0.1-0.4,0.2-0.6,0.4c-2.1,1.2-3.7,2.2-4.7,2.8l-0.9,0.7l-0.5,0.4C126.1,223.8,123.9,224.6,121.7,224.6z"/>
				</g>
				<g>
					<path d="M269.7,180.4c1.5,0,2.9,0,4.3,0.1c5.5,0.1,10.7,0.1,15.5,0.2c2.4,0,4.7,0.1,6.9,0.2c2.2,0.1,4.3,0.2,6.2,0.3
						c3.9,0.2,7.3,0.3,10.1,0.4c5.6,0.2,8.8,0.4,8.8,0.4c1,0,1.8,0.9,1.8,1.9c0,1-0.8,1.8-1.8,1.8l-0.1,0c0,0-3.2,0.1-8.8,0.2
						c-2.8,0.1-6.2,0.1-10,0.2c-1.9,0-4,0.1-6.2,0.1c-2.2,0-4.5,0.1-6.8,0.2c-4.8,0.2-9.9,0.5-15.4,0.8c-5.5,0.2-11.2,0.7-17.1,1.2
						c-5.9,0.5-12.1,0.9-18.2,1.7c-3.1,0.4-6.2,0.7-9.3,1.1c-1.6,0.2-3.1,0.4-4.7,0.6l-4.7,0.7c-3.1,0.5-6.2,1-9.4,1.4
						c-1.6,0.2-3.1,0.4-4.6,0.7c-1.5,0.3-3.1,0.6-4.6,0.9c-3,0.6-6.1,1.2-9,1.7c-1.5,0.3-3,0.6-4.4,1c-1.5,0.3-2.9,0.7-4.3,1
						c-1.4,0.3-2.8,0.7-4.3,1c-1.4,0.3-2.8,0.6-4.1,1c-2.7,0.8-5.4,1.5-7.9,2.2c-2.6,0.7-5,1.5-7.4,2.3c-2.4,0.8-4.7,1.5-6.8,2.3
						c-2.2,0.8-4.2,1.6-6.2,2.3c-1.9,0.8-3.7,1.6-5.4,2.3c-1.7,0.7-3.2,1.5-4.6,2.2c-0.7,0.3-1.4,0.7-2,1c-0.6,0.3-1.2,0.7-1.8,1
						c-2.3,1.2-3.9,2.3-4.9,2.9c-0.4,0.3-0.7,0.5-0.9,0.7c-0.3,0.2-0.5,0.4-0.5,0.4l-0.1,0.1c-1.5,1.2-3.2,1.7-5,1.7
						c-2.4,0-4.8-1.1-6.4-3.1c-2.8-3.5-2.1-8.6,1.4-11.4c0.1-0.1,0.3-0.2,0.4-0.3c0,0,0.2-0.1,0.5-0.3c0.4-0.3,1.1-0.7,1.9-1.2
						c1.6-0.9,3.7-2.1,6.4-3.4c0.7-0.3,1.4-0.7,2.2-1c0.8-0.3,1.5-0.7,2.4-1c1.6-0.7,3.4-1.5,5.3-2.1c1.9-0.7,3.9-1.5,6.1-2.2
						c2.2-0.7,4.4-1.4,6.8-2.1c2.4-0.8,4.9-1.3,7.4-2c2.6-0.6,5.2-1.4,8-1.9c2.7-0.6,5.6-1.2,8.4-1.8c1.4-0.3,2.9-0.6,4.4-0.8
						c1.5-0.2,3-0.5,4.5-0.8c1.5-0.3,3-0.5,4.5-0.8c1.5-0.3,3.1-0.5,4.6-0.7c3.1-0.4,6.2-0.8,9.4-1.2c1.6-0.2,3.2-0.4,4.7-0.6
						c1.6-0.2,3.2-0.3,4.8-0.5c3.2-0.3,6.4-0.6,9.6-0.9l4.8-0.4c1.6-0.1,3.2-0.2,4.8-0.3c3.2-0.2,6.4-0.3,9.5-0.5
						c6.3-0.4,12.5-0.5,18.5-0.6C261.1,180.5,265.5,180.4,269.7,180.4 M269.7,176.4c-3.1,0-6.3,0.1-9.6,0.1c-1.2,0-2.3,0-3.5,0.1
						c-1.2,0-2.3,0-3.5,0.1c-4.9,0.1-10,0.2-15.2,0.5l-3.7,0.2l-5.9,0.3l-4.8,0.3l-0.1,0l-0.1,0l-4.8,0.4l-3.5,0.3l-6.1,0.6
						c-0.6,0.1-1.1,0.1-1.7,0.2c-1.1,0.1-2.1,0.2-3.3,0.3l-3,0.4l-1.7,0.2l-9.3,1.2c-1.3,0.1-2.6,0.4-3.8,0.6l-1,0.2l-3.2,0.5
						l-1.4,0.2l-2.8,0.5l-1.7,0.3c-1.5,0.3-3,0.5-4.6,0.9l-8.4,1.8c-2.1,0.4-4,0.9-5.9,1.4c-0.7,0.2-1.5,0.4-2.2,0.6l0,0l0,0
						c-0.8,0.2-1.6,0.4-2.4,0.6c-1.7,0.4-3.4,0.9-5.1,1.4l-6.8,2.1l-0.1,0l-0.1,0c-1.5,0.5-2.9,1-4.2,1.5c-0.7,0.2-1.3,0.5-1.9,0.7
						c-1.6,0.5-3.1,1.2-4.4,1.7c-0.4,0.2-0.8,0.3-1.1,0.5l-2.4,1l0,0l0,0c-0.5,0.2-1.1,0.5-1.6,0.7c-0.2,0.1-0.5,0.2-0.7,0.3
						c-2.9,1.3-5.1,2.6-6.7,3.5l-0.1,0l-0.1,0l-1.2,0.8l-0.7,0.4l-0.1,0l-0.1,0l-0.5,0.3c-0.2,0.1-0.4,0.3-0.6,0.4
						c-2.5,2-4.2,4.9-4.6,8.1c-0.4,3.2,0.5,6.4,2.5,8.9c2.3,3,5.8,4.7,9.5,4.7c2.7,0,5.3-0.9,7.4-2.6l0.1-0.1l0.4-0.3l0.1-0.1
						l0.7-0.5c0.9-0.6,2.5-1.6,4.5-2.7c0.2-0.1,0.5-0.3,0.7-0.4c0.3-0.2,0.6-0.4,1-0.5l0.9-0.4l1.1-0.5c0.3-0.2,0.7-0.4,1.1-0.5
						c1-0.5,2.1-1.1,3.3-1.5l0,0l0,0c0.6-0.3,1.3-0.6,1.9-0.8c1.1-0.5,2.2-1,3.4-1.4l3.6-1.3l2.6-1l0,0l0,0c1.3-0.5,2.7-1,4.2-1.4
						c0.8-0.3,1.6-0.5,2.4-0.8c0.7-0.2,1.4-0.5,2.1-0.7c1.6-0.5,3.3-1.1,5-1.5l0,0l0,0l5.6-1.5l2.4-0.7l0,0l0,0
						c1.2-0.4,2.5-0.7,3.9-1l0.1,0l1.7-0.4l2.6-0.6l2.6-0.6l1.7-0.4l0.9-0.2c1.1-0.3,2.2-0.5,3.2-0.7l0,0l0,0l4.8-0.9l4.2-0.8
						l2.8-0.5l1.8-0.4c0.9-0.2,1.8-0.3,2.8-0.5c0.6-0.1,1.1-0.2,1.7-0.3l2.6-0.4l6.7-1l4.6-0.7l4.6-0.5l3.8-0.4l5.5-0.6l0,0l0,0
						c4.9-0.6,9.8-1,14.6-1.4c1.2-0.1,2.3-0.2,3.5-0.3c1.2-0.1,2.3-0.2,3.5-0.3c4.7-0.4,9.2-0.8,13.4-0.9l0,0l0,0l1.4-0.1l13.9-0.7
						c2.2-0.1,4.5-0.2,6.7-0.2l6.2-0.1l8.2-0.2l1.9,0l8.8-0.2l0.1,0c3.1-0.1,5.6-2.5,5.8-5.6c0.1-1.6-0.5-3.1-1.5-4.2
						c-1.1-1.2-2.5-1.8-4.1-1.9l-8.8-0.4l-5-0.2l-5-0.2l-6.2-0.3c-2.3-0.1-4.7-0.2-7-0.2l-15.5-0.2
						C272.7,176.4,271.3,176.4,269.7,176.4L269.7,176.4z"/>
				</g>
			</g>
			<g>
				<g>
					<path fill="#FFFFFF" d="M337.2,191.2c-3.9,0-7-3.2-7-7c0-3.8,3.2-7,7-7c3.8,0,7,3.1,7,7C344.2,188.1,341,191.2,337.2,191.2z"/>
				</g>
				<g>
					<path d="M337.2,179.2c2.8,0,5,2.3,5,5c0,2.8-2.2,5-5,5c-2.8,0-5-2.3-5-5C332.1,181.5,334.4,179.2,337.2,179.2 M337.2,175.2
						c-5,0-9,4-9,9c0,5,4.1,9,9,9c5,0,9-4.1,9-9C346.2,179.2,342.1,175.2,337.2,175.2L337.2,175.2z"/>
				</g>
			</g>
			<g>
				<g>
					<path fill="#FFFFFF" d="M339,172.9c-0.3,0-0.7,0-1-0.1c-1.8-0.5-3-2.2-2.9-4l0,0c0,0,0.1-1.5,0.3-4c0.2-2.3,0.5-5.9,1-10.5
						c1-7.9,2.8-19.8,6.1-31.8c0.8-2.9,1.7-5.8,2.6-8.6c0.9-2.6,1.9-5.3,3-8.3c0.4-0.9,0.8-1.8,1.1-2.7l0.5-1.2
						c0.4-1,0.9-1.8,1.3-2.7l0.5-1.1l1.9-3.6c0.5-0.9,0.9-1.7,1.4-2.4l0.5-0.9c1.2-2,2.6-4.1,3.9-5.8c0.9-1.3,1.9-2.5,2.8-3.5
						l0.6-0.7c0.7-0.9,1.4-1.5,1.9-2.1c0.2-0.2,0.4-0.4,0.6-0.6l0.9-0.9c2.7-2.8,6.3-4.3,10.1-4.3c3.6,0,7,1.4,9.7,3.9
						c5.6,5.3,5.8,14.2,0.4,19.8c-0.7,0.7-1.5,1.4-2.3,1.9L383,99c-0.1,0.1-0.3,0.2-0.6,0.4c-0.3,0.2-0.7,0.5-1.2,0.8
						c-0.2,0.2-0.5,0.4-0.7,0.6c-0.6,0.5-1.3,1-2,1.6l-0.1,0.1c-1,0.8-2.2,2-3.4,3.3l-1.9,2.1l-2,2.4l-2,2.6c-0.2,0.3-0.5,0.6-0.7,1
						c-0.4,0.6-0.9,1.2-1.3,1.9c-1.6,2.3-2.9,4.4-4.1,6.4c-1.4,2.3-2.7,4.6-3.9,7c-5.4,10.1-9.5,20.7-12,27.8
						c-1.5,4.2-2.5,7.5-3.2,9.6c-0.7,2.3-1,3.6-1.1,3.6l0,0.1C342.4,171.7,340.8,172.9,339,172.9z"/>
				</g>
				<g>
					<path d="M376.1,74.8c3,0,6,1.1,8.3,3.3c4.8,4.6,5,12.2,0.4,16.9c-0.6,0.6-1.3,1.2-2,1.7l-0.2,0.1c0,0-0.2,0.1-0.6,0.4
						c-0.4,0.3-1.1,0.7-1.8,1.2c-0.8,0.6-1.8,1.3-2.8,2.3c-1.1,0.9-2.3,2.1-3.6,3.4c-0.6,0.7-1.3,1.4-2,2.1
						c-0.7,0.8-1.3,1.6-2.1,2.4c-0.7,0.9-1.4,1.8-2.1,2.7c-0.7,1-1.4,1.9-2.1,2.9c-1.4,2-2.8,4.2-4.2,6.5c-1.4,2.3-2.7,4.6-4,7.1
						c-5.1,9.7-9.3,20.1-12.1,28c-1.4,4-2.5,7.3-3.2,9.7c-0.7,2.4-1.1,3.7-1.1,3.7l0,0c-0.2,0.9-1,1.4-1.9,1.4c-0.2,0-0.3,0-0.5-0.1
						c-0.9-0.2-1.5-1.1-1.4-2c0,0,0.1-1.5,0.2-4c0.2-2.5,0.5-6.1,1-10.4c1-8.6,2.9-20.1,6-31.5c0.8-2.9,1.6-5.7,2.6-8.5
						c0.9-2.8,1.9-5.6,3-8.2c0.5-1.3,1.1-2.6,1.7-3.9c0.6-1.3,1.2-2.5,1.8-3.7c0.6-1.2,1.2-2.4,1.8-3.5c0.6-1.1,1.3-2.2,1.9-3.2
						c1.3-2.1,2.5-4,3.7-5.6c1.2-1.7,2.4-3,3.3-4.2c1-1.2,1.9-2,2.4-2.6c0.6-0.6,0.9-0.9,0.9-0.9C369.8,76.1,372.9,74.8,376.1,74.8
						 M376.1,70.8L376.1,70.8c-4.4,0-8.5,1.8-11.6,4.9l-0.9,0.9l0,0l0,0c-0.2,0.2-0.3,0.4-0.5,0.6c-0.5,0.5-1.2,1.3-2,2.2
						c-0.2,0.3-0.4,0.5-0.6,0.8c-0.8,1-1.9,2.2-2.9,3.7c-1.4,1.8-2.7,3.9-3.9,5.8l0,0.1l0,0.1l-0.5,0.9c-0.5,0.8-0.9,1.6-1.4,2.4
						l0,0l0,0l-0.1,0.3l-1.7,3.3l0,0.1l0,0.1l-0.5,1.1c-0.4,0.9-0.8,1.8-1.3,2.7l0,0l0,0c-0.2,0.4-0.4,0.8-0.5,1.2
						c-0.4,0.9-0.8,1.8-1.2,2.7c-1.2,3-2.2,5.8-3.1,8.5c-0.9,2.8-1.8,5.8-2.6,8.7c-3.3,12.1-5.1,24.1-6.1,32
						c-0.6,4.6-0.9,8.3-1,10.6c-0.2,2.5-0.3,4-0.3,4.1c-0.1,2.8,1.7,5.3,4.4,6c0.5,0.1,1,0.2,1.5,0.2c2.7,0,5.1-1.8,5.8-4.4
						c0,0,0.4-1.3,1-3.6c0.6-2.1,1.7-5.4,3.1-9.5c2.5-7,6.5-17.5,11.8-27.5c1.2-2.4,2.5-4.7,3.9-6.9c1.2-2,2.5-4,4-6.3
						c0.4-0.6,0.8-1.2,1.3-1.8c0.3-0.3,0.5-0.7,0.7-1l2-2.6l0.9-1.1l1-1.2l0.9-1l1-1.1c1.2-1.2,2.3-2.3,3.2-3.1l0.1-0.1l0.1-0.1
						c0.6-0.6,1.2-1,1.8-1.5c0.3-0.2,0.5-0.4,0.8-0.6c0.4-0.3,0.7-0.5,1-0.7c0.2-0.2,0.5-0.3,0.7-0.4l0.6-0.4l0.2-0.1l0,0l0,0
						c0.9-0.6,1.8-1.4,2.6-2.2c6.1-6.4,5.9-16.5-0.5-22.6C384.1,72.4,380.2,70.8,376.1,70.8L376.1,70.8z"/>
				</g>
			</g>
		</g>
	</g>
	<g>
		<path d="M33.4,7.1h-9.6v31.8h-9.2V7.1h-10V0h29.8L33.4,7.1z"/>
		<path d="M58.8,22.2H47.2v16.7H38V0h9.2v15h11.7V0h9.2v38.9h-9.2V22.2z"/>
		<path d="M98.3,6.6H84.6v9.3h12v6.5h-12v9.9h14.7v6.6H75.3V0h23.9L98.3,6.6z"/>
	</g>
</g>
</svg>
